%TF.GenerationSoftware,KiCad,Pcbnew,9.0.1*%
%TF.CreationDate,2025-04-23T18:23:55-07:00*%
%TF.ProjectId,rp2350,72703233-3530-42e6-9b69-6361645f7063,rev?*%
%TF.SameCoordinates,Original*%
%TF.FileFunction,Copper,L2,Bot*%
%TF.FilePolarity,Positive*%
%FSLAX46Y46*%
G04 Gerber Fmt 4.6, Leading zero omitted, Abs format (unit mm)*
G04 Created by KiCad (PCBNEW 9.0.1) date 2025-04-23 18:23:55*
%MOMM*%
%LPD*%
G01*
G04 APERTURE LIST*
%TA.AperFunction,HeatsinkPad*%
%ADD10C,0.500000*%
%TD*%
%TA.AperFunction,HeatsinkPad*%
%ADD11R,3.400000X3.400000*%
%TD*%
%TA.AperFunction,HeatsinkPad*%
%ADD12O,1.350000X1.700000*%
%TD*%
%TA.AperFunction,HeatsinkPad*%
%ADD13O,1.100000X1.500000*%
%TD*%
%TA.AperFunction,ViaPad*%
%ADD14C,0.600000*%
%TD*%
%TA.AperFunction,Conductor*%
%ADD15C,0.150000*%
%TD*%
%TA.AperFunction,Conductor*%
%ADD16C,0.400000*%
%TD*%
%TA.AperFunction,Conductor*%
%ADD17C,0.100000*%
%TD*%
G04 APERTURE END LIST*
D10*
%TO.P,U4,61,GND*%
%TO.N,GND*%
X122112500Y-91450000D03*
X122112500Y-92900000D03*
X122112500Y-94350000D03*
X123562500Y-91450000D03*
X123562500Y-92900000D03*
D11*
X123562500Y-92900000D03*
D10*
X123562500Y-94350000D03*
X125012500Y-91450000D03*
X125012500Y-92900000D03*
X125012500Y-94350000D03*
%TD*%
D12*
%TO.P,J3,6,Shield*%
%TO.N,GND*%
X117250000Y-51750000D03*
D13*
X117560000Y-54750000D03*
X122400000Y-54750000D03*
D12*
X122710000Y-51750000D03*
%TD*%
D14*
%TO.N,GND*%
X110500000Y-109000000D03*
X125250000Y-110000000D03*
X120500000Y-108250000D03*
X119513646Y-72083265D03*
%TO.N,/GPIO0*%
X118750000Y-90750000D03*
X115500000Y-86500000D03*
%TO.N,GND*%
X118500000Y-56250000D03*
X110250000Y-78500000D03*
X126250000Y-88500000D03*
X119500000Y-79500000D03*
X133000000Y-97500000D03*
X133000000Y-90000000D03*
X133000000Y-92000000D03*
X133000000Y-94000000D03*
X137250000Y-100750000D03*
X132875000Y-63625000D03*
X132750000Y-76000000D03*
X127500000Y-105000000D03*
X118250000Y-105000000D03*
X131000000Y-84500000D03*
X129250000Y-85750000D03*
X129250000Y-84000000D03*
%TO.N,+1V1*%
X125000000Y-84500000D03*
X124500000Y-90750000D03*
%TO.N,GND*%
X119750000Y-102500000D03*
X124750000Y-102500000D03*
X106000000Y-56250000D03*
X114250000Y-94250000D03*
X114250000Y-92250000D03*
X114250000Y-90250000D03*
%TO.N,+1V1*%
X123494987Y-95143049D03*
X124500000Y-98250000D03*
X118500000Y-92100000D03*
X121359258Y-92099966D03*
X129250000Y-92500000D03*
X125692179Y-92498886D03*
%TD*%
D15*
%TO.N,/GPIO0*%
X118750000Y-90750000D02*
X118750000Y-89750000D01*
X118750000Y-89750000D02*
X115500000Y-86500000D01*
D16*
%TO.N,+1V1*%
X125000000Y-84500000D02*
X124500000Y-85000000D01*
X124500000Y-85000000D02*
X124500000Y-90750000D01*
X123494987Y-95143049D02*
X123494987Y-97244987D01*
X123494987Y-97244987D02*
X124500000Y-98250000D01*
D15*
X118500034Y-92099966D02*
X118500000Y-92100000D01*
D16*
X121359258Y-92099966D02*
X118500034Y-92099966D01*
D17*
X129248886Y-92498886D02*
X129250000Y-92500000D01*
D16*
X125692179Y-92498886D02*
X129248886Y-92498886D01*
%TD*%
%TA.AperFunction,Conductor*%
%TO.N,GND*%
G36*
X116430476Y-50520185D02*
G01*
X116476231Y-50572989D01*
X116486175Y-50642147D01*
X116457150Y-50705703D01*
X116451118Y-50712181D01*
X116353758Y-50809540D01*
X116353754Y-50809545D01*
X116245052Y-50959162D01*
X116161084Y-51123956D01*
X116161083Y-51123959D01*
X116103933Y-51299852D01*
X116075000Y-51482526D01*
X116075000Y-51500000D01*
X116900000Y-51500000D01*
X116900000Y-52000000D01*
X116075000Y-52000000D01*
X116075000Y-52017473D01*
X116103933Y-52200147D01*
X116161083Y-52376040D01*
X116161084Y-52376043D01*
X116245052Y-52540837D01*
X116353754Y-52690454D01*
X116353758Y-52690459D01*
X116484540Y-52821241D01*
X116484545Y-52821245D01*
X116634162Y-52929947D01*
X116798956Y-53013915D01*
X116798959Y-53013916D01*
X116974845Y-53071064D01*
X116974858Y-53071067D01*
X117000000Y-53075049D01*
X117000000Y-52244975D01*
X117035095Y-52280070D01*
X117114905Y-52326148D01*
X117203922Y-52350000D01*
X117296078Y-52350000D01*
X117385095Y-52326148D01*
X117464905Y-52280070D01*
X117500000Y-52244975D01*
X117500000Y-53075048D01*
X117525141Y-53071067D01*
X117525154Y-53071064D01*
X117701040Y-53013916D01*
X117701043Y-53013915D01*
X117865837Y-52929947D01*
X118015454Y-52821245D01*
X118015459Y-52821241D01*
X118146241Y-52690459D01*
X118146245Y-52690454D01*
X118254947Y-52540837D01*
X118338915Y-52376043D01*
X118338916Y-52376040D01*
X118396066Y-52200147D01*
X118425000Y-52017473D01*
X118425000Y-52000000D01*
X117600000Y-52000000D01*
X117600000Y-51500000D01*
X118425000Y-51500000D01*
X118425000Y-51482526D01*
X118396066Y-51299852D01*
X118338916Y-51123959D01*
X118338915Y-51123956D01*
X118254947Y-50959162D01*
X118146245Y-50809545D01*
X118146241Y-50809540D01*
X118048882Y-50712181D01*
X118015397Y-50650858D01*
X118020381Y-50581166D01*
X118062253Y-50525233D01*
X118127717Y-50500816D01*
X118136563Y-50500500D01*
X121823437Y-50500500D01*
X121890476Y-50520185D01*
X121936231Y-50572989D01*
X121946175Y-50642147D01*
X121917150Y-50705703D01*
X121911118Y-50712181D01*
X121813758Y-50809540D01*
X121813754Y-50809545D01*
X121705052Y-50959162D01*
X121621084Y-51123956D01*
X121621083Y-51123959D01*
X121563933Y-51299852D01*
X121535000Y-51482526D01*
X121535000Y-51500000D01*
X122360000Y-51500000D01*
X122360000Y-52000000D01*
X121535000Y-52000000D01*
X121535000Y-52017473D01*
X121563933Y-52200147D01*
X121621083Y-52376040D01*
X121621084Y-52376043D01*
X121705052Y-52540837D01*
X121813754Y-52690454D01*
X121813758Y-52690459D01*
X121944540Y-52821241D01*
X121944545Y-52821245D01*
X122094162Y-52929947D01*
X122258956Y-53013915D01*
X122258959Y-53013916D01*
X122434845Y-53071064D01*
X122434858Y-53071067D01*
X122460000Y-53075049D01*
X122460000Y-52244975D01*
X122495095Y-52280070D01*
X122574905Y-52326148D01*
X122663922Y-52350000D01*
X122756078Y-52350000D01*
X122845095Y-52326148D01*
X122924905Y-52280070D01*
X122960000Y-52244975D01*
X122960000Y-53075048D01*
X122985141Y-53071067D01*
X122985154Y-53071064D01*
X123161040Y-53013916D01*
X123161043Y-53013915D01*
X123325837Y-52929947D01*
X123475454Y-52821245D01*
X123475459Y-52821241D01*
X123606241Y-52690459D01*
X123606245Y-52690454D01*
X123714947Y-52540837D01*
X123798915Y-52376043D01*
X123798916Y-52376040D01*
X123856066Y-52200147D01*
X123885000Y-52017473D01*
X123885000Y-52000000D01*
X123060000Y-52000000D01*
X123060000Y-51500000D01*
X123885000Y-51500000D01*
X123885000Y-51482526D01*
X123856066Y-51299852D01*
X123798916Y-51123959D01*
X123798915Y-51123956D01*
X123714947Y-50959162D01*
X123606245Y-50809545D01*
X123606241Y-50809540D01*
X123508882Y-50712181D01*
X123475397Y-50650858D01*
X123480381Y-50581166D01*
X123522253Y-50525233D01*
X123587717Y-50500816D01*
X123596563Y-50500500D01*
X139875500Y-50500500D01*
X139942539Y-50520185D01*
X139988294Y-50572989D01*
X139999500Y-50624500D01*
X139999500Y-112375500D01*
X139979815Y-112442539D01*
X139927011Y-112488294D01*
X139875500Y-112499500D01*
X103624500Y-112499500D01*
X103557461Y-112479815D01*
X103511706Y-112427011D01*
X103500500Y-112375500D01*
X103500500Y-95027577D01*
X121788475Y-95027577D01*
X121893736Y-95071178D01*
X121893740Y-95071179D01*
X122038626Y-95099999D01*
X122038629Y-95100000D01*
X122186371Y-95100000D01*
X122186373Y-95099999D01*
X122331259Y-95071179D01*
X122331267Y-95071177D01*
X122467754Y-95014642D01*
X122467765Y-95014636D01*
X122501595Y-94992032D01*
X122568272Y-94971153D01*
X122635652Y-94989637D01*
X122682343Y-95041615D01*
X122694487Y-95095133D01*
X122694487Y-95221895D01*
X122725248Y-95376538D01*
X122725251Y-95376550D01*
X122785048Y-95520913D01*
X122794487Y-95568365D01*
X122794487Y-97175993D01*
X122794487Y-97313981D01*
X122794487Y-97313983D01*
X122794486Y-97313983D01*
X122821405Y-97449309D01*
X122821408Y-97449319D01*
X122874209Y-97576794D01*
X122950874Y-97691532D01*
X122950875Y-97691533D01*
X123703928Y-98444585D01*
X123730808Y-98484814D01*
X123790602Y-98629172D01*
X123790609Y-98629185D01*
X123878210Y-98760288D01*
X123878213Y-98760292D01*
X123989707Y-98871786D01*
X123989711Y-98871789D01*
X124120814Y-98959390D01*
X124120827Y-98959397D01*
X124266498Y-99019735D01*
X124266503Y-99019737D01*
X124421153Y-99050499D01*
X124421156Y-99050500D01*
X124421158Y-99050500D01*
X124578844Y-99050500D01*
X124578845Y-99050499D01*
X124733497Y-99019737D01*
X124879179Y-98959394D01*
X125010289Y-98871789D01*
X125121789Y-98760289D01*
X125209394Y-98629179D01*
X125269737Y-98483497D01*
X125300500Y-98328842D01*
X125300500Y-98171158D01*
X125300500Y-98171155D01*
X125300499Y-98171153D01*
X125269738Y-98016510D01*
X125269737Y-98016503D01*
X125269735Y-98016498D01*
X125209397Y-97870827D01*
X125209390Y-97870814D01*
X125121789Y-97739711D01*
X125121786Y-97739707D01*
X125010292Y-97628213D01*
X125010288Y-97628210D01*
X124879185Y-97540609D01*
X124879172Y-97540602D01*
X124734814Y-97480808D01*
X124694585Y-97453928D01*
X124231806Y-96991149D01*
X124198321Y-96929826D01*
X124195487Y-96903468D01*
X124195487Y-95568365D01*
X124204926Y-95520913D01*
X124264722Y-95376550D01*
X124264724Y-95376546D01*
X124295487Y-95221891D01*
X124295487Y-95064207D01*
X124295487Y-95064204D01*
X124295486Y-95064202D01*
X124288201Y-95027577D01*
X124688475Y-95027577D01*
X124793736Y-95071178D01*
X124793740Y-95071179D01*
X124938626Y-95099999D01*
X124938629Y-95100000D01*
X125086371Y-95100000D01*
X125086373Y-95099999D01*
X125231260Y-95071179D01*
X125231275Y-95071175D01*
X125336524Y-95027578D01*
X125336524Y-95027577D01*
X125012501Y-94703554D01*
X125012500Y-94703554D01*
X124688475Y-95027577D01*
X124288201Y-95027577D01*
X124284895Y-95010954D01*
X124264725Y-94909557D01*
X124264724Y-94909556D01*
X124264724Y-94909552D01*
X124240879Y-94851986D01*
X124233411Y-94782518D01*
X124264686Y-94720039D01*
X124324244Y-94684702D01*
X124658946Y-94350000D01*
X124658946Y-94349999D01*
X124639056Y-94330109D01*
X124912500Y-94330109D01*
X124912500Y-94369891D01*
X124927724Y-94406645D01*
X124955855Y-94434776D01*
X124992609Y-94450000D01*
X125032391Y-94450000D01*
X125069145Y-94434776D01*
X125097276Y-94406645D01*
X125112500Y-94369891D01*
X125112500Y-94349999D01*
X125366054Y-94349999D01*
X125366054Y-94350001D01*
X125690077Y-94674024D01*
X125690078Y-94674024D01*
X125733675Y-94568775D01*
X125733679Y-94568760D01*
X125762499Y-94423873D01*
X125762500Y-94423871D01*
X125762500Y-94276128D01*
X125762499Y-94276126D01*
X125733679Y-94131240D01*
X125733678Y-94131236D01*
X125690077Y-94025975D01*
X125366054Y-94349999D01*
X125112500Y-94349999D01*
X125112500Y-94330109D01*
X125097276Y-94293355D01*
X125069145Y-94265224D01*
X125032391Y-94250000D01*
X124992609Y-94250000D01*
X124955855Y-94265224D01*
X124927724Y-94293355D01*
X124912500Y-94330109D01*
X124639056Y-94330109D01*
X124334921Y-94025974D01*
X124311690Y-94030595D01*
X124263308Y-94030595D01*
X124240077Y-94025974D01*
X123903217Y-94362834D01*
X123841894Y-94396319D01*
X123772202Y-94391335D01*
X123768086Y-94389715D01*
X123728484Y-94373312D01*
X123728475Y-94373309D01*
X123662500Y-94360185D01*
X123662500Y-94330109D01*
X123647276Y-94293355D01*
X123619145Y-94265224D01*
X123582391Y-94250000D01*
X123542609Y-94250000D01*
X123505855Y-94265224D01*
X123477724Y-94293355D01*
X123462500Y-94330109D01*
X123462500Y-94342549D01*
X123416145Y-94342549D01*
X123416143Y-94342549D01*
X123302114Y-94365231D01*
X123232522Y-94359004D01*
X123190241Y-94331295D01*
X122884921Y-94025974D01*
X122861690Y-94030595D01*
X122813308Y-94030595D01*
X122790077Y-94025974D01*
X122289277Y-94526777D01*
X121788475Y-95027577D01*
X103500500Y-95027577D01*
X103500500Y-94276126D01*
X121362500Y-94276126D01*
X121362500Y-94423873D01*
X121391320Y-94568759D01*
X121391322Y-94568767D01*
X121434921Y-94674024D01*
X121758946Y-94350000D01*
X121758946Y-94349999D01*
X121739056Y-94330109D01*
X122012500Y-94330109D01*
X122012500Y-94369891D01*
X122027724Y-94406645D01*
X122055855Y-94434776D01*
X122092609Y-94450000D01*
X122132391Y-94450000D01*
X122169145Y-94434776D01*
X122197276Y-94406645D01*
X122212500Y-94369891D01*
X122212500Y-94330109D01*
X122197276Y-94293355D01*
X122169145Y-94265224D01*
X122132391Y-94250000D01*
X122092609Y-94250000D01*
X122055855Y-94265224D01*
X122027724Y-94293355D01*
X122012500Y-94330109D01*
X121739056Y-94330109D01*
X121434921Y-94025974D01*
X121434920Y-94025974D01*
X121391323Y-94131228D01*
X121391320Y-94131240D01*
X121362500Y-94276126D01*
X103500500Y-94276126D01*
X103500500Y-93577577D01*
X121788474Y-93577577D01*
X121793095Y-93600808D01*
X121793095Y-93649190D01*
X121788474Y-93672421D01*
X122112500Y-93996446D01*
X122112501Y-93996446D01*
X122436524Y-93672422D01*
X122431903Y-93649191D01*
X122431903Y-93640853D01*
X122430013Y-93636050D01*
X122431903Y-93600807D01*
X122436523Y-93577577D01*
X123238474Y-93577577D01*
X123243095Y-93600808D01*
X123243095Y-93649190D01*
X123238474Y-93672421D01*
X123562500Y-93996446D01*
X123562501Y-93996446D01*
X123886524Y-93672422D01*
X123881903Y-93649191D01*
X123881903Y-93600807D01*
X123886523Y-93577576D01*
X123562501Y-93253554D01*
X123562500Y-93253554D01*
X123238474Y-93577577D01*
X122436523Y-93577577D01*
X122436523Y-93577576D01*
X122112501Y-93253554D01*
X122112500Y-93253554D01*
X121788474Y-93577577D01*
X103500500Y-93577577D01*
X103500500Y-86421153D01*
X114699500Y-86421153D01*
X114699500Y-86578846D01*
X114730261Y-86733489D01*
X114730264Y-86733501D01*
X114790602Y-86879172D01*
X114790609Y-86879185D01*
X114878210Y-87010288D01*
X114878213Y-87010292D01*
X114989707Y-87121786D01*
X114989711Y-87121789D01*
X115120814Y-87209390D01*
X115120827Y-87209397D01*
X115266498Y-87269735D01*
X115266503Y-87269737D01*
X115421153Y-87300499D01*
X115421156Y-87300500D01*
X115421158Y-87300500D01*
X115435258Y-87300500D01*
X115502297Y-87320185D01*
X115522939Y-87336819D01*
X118138181Y-89952061D01*
X118152884Y-89978988D01*
X118169477Y-90004807D01*
X118170368Y-90011007D01*
X118171666Y-90013384D01*
X118174500Y-90039742D01*
X118174500Y-90142059D01*
X118154815Y-90209098D01*
X118138181Y-90229740D01*
X118128213Y-90239707D01*
X118128210Y-90239711D01*
X118040609Y-90370814D01*
X118040602Y-90370827D01*
X117980264Y-90516498D01*
X117980261Y-90516510D01*
X117949500Y-90671153D01*
X117949500Y-90828846D01*
X117980261Y-90983489D01*
X117980264Y-90983501D01*
X118040602Y-91129172D01*
X118040609Y-91129185D01*
X118117237Y-91243866D01*
X118138115Y-91310544D01*
X118119631Y-91377924D01*
X118083026Y-91415859D01*
X117989711Y-91478210D01*
X117989707Y-91478213D01*
X117878213Y-91589707D01*
X117878210Y-91589711D01*
X117790609Y-91720814D01*
X117790602Y-91720827D01*
X117730264Y-91866498D01*
X117730261Y-91866510D01*
X117699500Y-92021153D01*
X117699500Y-92178846D01*
X117730261Y-92333489D01*
X117730264Y-92333501D01*
X117790602Y-92479172D01*
X117790609Y-92479185D01*
X117878210Y-92610288D01*
X117878213Y-92610292D01*
X117989707Y-92721786D01*
X117989711Y-92721789D01*
X118120814Y-92809390D01*
X118120827Y-92809397D01*
X118266416Y-92869701D01*
X118266503Y-92869737D01*
X118409987Y-92898278D01*
X118421153Y-92900499D01*
X118421156Y-92900500D01*
X118421158Y-92900500D01*
X118578844Y-92900500D01*
X118578845Y-92900499D01*
X118733497Y-92869737D01*
X118813226Y-92836712D01*
X118877946Y-92809905D01*
X118925398Y-92800466D01*
X120933942Y-92800466D01*
X120981394Y-92809905D01*
X121125756Y-92869701D01*
X121125761Y-92869703D01*
X121252944Y-92895001D01*
X121269416Y-92898278D01*
X121331327Y-92930663D01*
X121365901Y-92991378D01*
X121366842Y-92995703D01*
X121391320Y-93118761D01*
X121391322Y-93118767D01*
X121434921Y-93224024D01*
X121778837Y-92880109D01*
X122012500Y-92880109D01*
X122012500Y-92919891D01*
X122027724Y-92956645D01*
X122055855Y-92984776D01*
X122092609Y-93000000D01*
X122132391Y-93000000D01*
X122169145Y-92984776D01*
X122197276Y-92956645D01*
X122212500Y-92919891D01*
X122212500Y-92899999D01*
X122466054Y-92899999D01*
X122466054Y-92900001D01*
X122790076Y-93224023D01*
X122813307Y-93219403D01*
X122861691Y-93219403D01*
X122884922Y-93224024D01*
X123208946Y-92900000D01*
X123208946Y-92899999D01*
X123189056Y-92880109D01*
X123462500Y-92880109D01*
X123462500Y-92919891D01*
X123477724Y-92956645D01*
X123505855Y-92984776D01*
X123542609Y-93000000D01*
X123582391Y-93000000D01*
X123619145Y-92984776D01*
X123647276Y-92956645D01*
X123662500Y-92919891D01*
X123662500Y-92899999D01*
X123916054Y-92899999D01*
X123916054Y-92900001D01*
X124240076Y-93224023D01*
X124263307Y-93219403D01*
X124311691Y-93219403D01*
X124334922Y-93224024D01*
X124658946Y-92900000D01*
X124658946Y-92899999D01*
X124334921Y-92575974D01*
X124311690Y-92580595D01*
X124263308Y-92580595D01*
X124240077Y-92575974D01*
X123916054Y-92899999D01*
X123662500Y-92899999D01*
X123662500Y-92880109D01*
X123647276Y-92843355D01*
X123619145Y-92815224D01*
X123582391Y-92800000D01*
X123542609Y-92800000D01*
X123505855Y-92815224D01*
X123477724Y-92843355D01*
X123462500Y-92880109D01*
X123189056Y-92880109D01*
X122884921Y-92575974D01*
X122861690Y-92580595D01*
X122813308Y-92580595D01*
X122790077Y-92575974D01*
X122466054Y-92899999D01*
X122212500Y-92899999D01*
X122212500Y-92880109D01*
X122197276Y-92843355D01*
X122169145Y-92815224D01*
X122132391Y-92800000D01*
X122092609Y-92800000D01*
X122055855Y-92815224D01*
X122027724Y-92843355D01*
X122012500Y-92880109D01*
X121778837Y-92880109D01*
X121897989Y-92760957D01*
X122436524Y-92222421D01*
X122431903Y-92199191D01*
X122431903Y-92190853D01*
X122430013Y-92186050D01*
X122431903Y-92150807D01*
X122436523Y-92127577D01*
X123238474Y-92127577D01*
X123243095Y-92150808D01*
X123243095Y-92199190D01*
X123238474Y-92222421D01*
X123562500Y-92546446D01*
X123562501Y-92546446D01*
X123886524Y-92222422D01*
X123881903Y-92199191D01*
X123881903Y-92190853D01*
X123880013Y-92186050D01*
X123881903Y-92150807D01*
X123886523Y-92127577D01*
X124688474Y-92127577D01*
X124693095Y-92150808D01*
X124693095Y-92199190D01*
X124688474Y-92222420D01*
X124855360Y-92389306D01*
X124888845Y-92450629D01*
X124891679Y-92476987D01*
X124891679Y-92577732D01*
X124922440Y-92732375D01*
X124922443Y-92732387D01*
X124956622Y-92814905D01*
X124955855Y-92815224D01*
X124927724Y-92843355D01*
X124912500Y-92880109D01*
X124912500Y-92919891D01*
X124927724Y-92956645D01*
X124955855Y-92984776D01*
X124992609Y-93000000D01*
X125032391Y-93000000D01*
X125057350Y-92989661D01*
X125070389Y-93009174D01*
X125070392Y-93009178D01*
X125103087Y-93041873D01*
X125136572Y-93103196D01*
X125131588Y-93172888D01*
X125089716Y-93228821D01*
X125024252Y-93253238D01*
X125015406Y-93253554D01*
X125012500Y-93253554D01*
X124688474Y-93577577D01*
X124693095Y-93600808D01*
X124693095Y-93649190D01*
X124688474Y-93672421D01*
X125012500Y-93996446D01*
X125012501Y-93996446D01*
X125336524Y-93672422D01*
X125331903Y-93649191D01*
X125331903Y-93600807D01*
X125336523Y-93577576D01*
X125161197Y-93402250D01*
X125127712Y-93340927D01*
X125132696Y-93271235D01*
X125174568Y-93215302D01*
X125240032Y-93190885D01*
X125307537Y-93205570D01*
X125307625Y-93205407D01*
X125308199Y-93205714D01*
X125308305Y-93205737D01*
X125308773Y-93206021D01*
X125313006Y-93208283D01*
X125458677Y-93268621D01*
X125458682Y-93268623D01*
X125613332Y-93299385D01*
X125613335Y-93299386D01*
X125613337Y-93299386D01*
X125771023Y-93299386D01*
X125771024Y-93299385D01*
X125925676Y-93268623D01*
X126021767Y-93228821D01*
X126070043Y-93208825D01*
X126117495Y-93199386D01*
X128821994Y-93199386D01*
X128869446Y-93208825D01*
X129013816Y-93268624D01*
X129016503Y-93269737D01*
X129165553Y-93299385D01*
X129171153Y-93300499D01*
X129171156Y-93300500D01*
X129171158Y-93300500D01*
X129328844Y-93300500D01*
X129328845Y-93300499D01*
X129483497Y-93269737D01*
X129629179Y-93209394D01*
X129760289Y-93121789D01*
X129871789Y-93010289D01*
X129959394Y-92879179D01*
X129959856Y-92878065D01*
X130019735Y-92733501D01*
X130019737Y-92733497D01*
X130050500Y-92578842D01*
X130050500Y-92421158D01*
X130050500Y-92421155D01*
X130050499Y-92421153D01*
X130019738Y-92266510D01*
X130019737Y-92266503D01*
X130001478Y-92222421D01*
X129959397Y-92120827D01*
X129959390Y-92120814D01*
X129871789Y-91989711D01*
X129871786Y-91989707D01*
X129760292Y-91878213D01*
X129760288Y-91878210D01*
X129629185Y-91790609D01*
X129629172Y-91790602D01*
X129483501Y-91730264D01*
X129483489Y-91730261D01*
X129328845Y-91699500D01*
X129328842Y-91699500D01*
X129171158Y-91699500D01*
X129171155Y-91699500D01*
X129016510Y-91730261D01*
X129016502Y-91730263D01*
X128937316Y-91763062D01*
X128874825Y-91788947D01*
X128827374Y-91798386D01*
X126117495Y-91798386D01*
X126070043Y-91788947D01*
X125925680Y-91729150D01*
X125925670Y-91729147D01*
X125851048Y-91714304D01*
X125789137Y-91681919D01*
X125754563Y-91621203D01*
X125753623Y-91568494D01*
X125762500Y-91523870D01*
X125762500Y-91376128D01*
X125762499Y-91376126D01*
X125733679Y-91231240D01*
X125733678Y-91231236D01*
X125690077Y-91125975D01*
X125189277Y-91626777D01*
X124688474Y-92127577D01*
X123886523Y-92127577D01*
X123886523Y-92127576D01*
X123562501Y-91803554D01*
X123562500Y-91803554D01*
X123238474Y-92127577D01*
X122436523Y-92127577D01*
X122113612Y-91804666D01*
X122086734Y-91764442D01*
X122068652Y-91720787D01*
X121981047Y-91589677D01*
X121877689Y-91486319D01*
X121877687Y-91486316D01*
X121869550Y-91478179D01*
X121869546Y-91478176D01*
X121797609Y-91430109D01*
X122012500Y-91430109D01*
X122012500Y-91469891D01*
X122027724Y-91506645D01*
X122055855Y-91534776D01*
X122092609Y-91550000D01*
X122132391Y-91550000D01*
X122169145Y-91534776D01*
X122197276Y-91506645D01*
X122212500Y-91469891D01*
X122212500Y-91449999D01*
X122466054Y-91449999D01*
X122466054Y-91450001D01*
X122790076Y-91774023D01*
X122813307Y-91769403D01*
X122861691Y-91769403D01*
X122884922Y-91774024D01*
X123208946Y-91450000D01*
X123208946Y-91449999D01*
X123189056Y-91430109D01*
X123462500Y-91430109D01*
X123462500Y-91469891D01*
X123477724Y-91506645D01*
X123505855Y-91534776D01*
X123542609Y-91550000D01*
X123582391Y-91550000D01*
X123619145Y-91534776D01*
X123647276Y-91506645D01*
X123662500Y-91469891D01*
X123662500Y-91430109D01*
X123647276Y-91393355D01*
X123619145Y-91365224D01*
X123582391Y-91350000D01*
X123542609Y-91350000D01*
X123505855Y-91365224D01*
X123477724Y-91393355D01*
X123462500Y-91430109D01*
X123189056Y-91430109D01*
X122884921Y-91125974D01*
X122861690Y-91130595D01*
X122813308Y-91130595D01*
X122790077Y-91125974D01*
X122466054Y-91449999D01*
X122212500Y-91449999D01*
X122212500Y-91430109D01*
X122197276Y-91393355D01*
X122169145Y-91365224D01*
X122132391Y-91350000D01*
X122092609Y-91350000D01*
X122055855Y-91365224D01*
X122027724Y-91393355D01*
X122012500Y-91430109D01*
X121797609Y-91430109D01*
X121738443Y-91390575D01*
X121738433Y-91390570D01*
X121694784Y-91372490D01*
X121654556Y-91345610D01*
X121434921Y-91125974D01*
X121394766Y-91222918D01*
X121350925Y-91277322D01*
X121286466Y-91298775D01*
X121286476Y-91298869D01*
X121286066Y-91298909D01*
X121284631Y-91299387D01*
X121280459Y-91299461D01*
X121280411Y-91299466D01*
X121125768Y-91330227D01*
X121125756Y-91330230D01*
X120981394Y-91390027D01*
X120933942Y-91399466D01*
X119510782Y-91399466D01*
X119443743Y-91379781D01*
X119397988Y-91326977D01*
X119388044Y-91257819D01*
X119407680Y-91206575D01*
X119459390Y-91129185D01*
X119459390Y-91129184D01*
X119459394Y-91129179D01*
X119519737Y-90983497D01*
X119550500Y-90828842D01*
X119550500Y-90772420D01*
X121788474Y-90772420D01*
X121788474Y-90772421D01*
X122112500Y-91096446D01*
X122112501Y-91096446D01*
X122436524Y-90772421D01*
X122436522Y-90772420D01*
X123238474Y-90772420D01*
X123238474Y-90772421D01*
X123739277Y-91273223D01*
X124240077Y-91774023D01*
X124263307Y-91769403D01*
X124311691Y-91769403D01*
X124334920Y-91774023D01*
X124526782Y-91582162D01*
X124588105Y-91548677D01*
X124590226Y-91548235D01*
X124733497Y-91519737D01*
X124879179Y-91459394D01*
X124912500Y-91437129D01*
X124912500Y-91469891D01*
X124927724Y-91506645D01*
X124955855Y-91534776D01*
X124992609Y-91550000D01*
X125032391Y-91550000D01*
X125069145Y-91534776D01*
X125097276Y-91506645D01*
X125112500Y-91469891D01*
X125112500Y-91430109D01*
X125097276Y-91393355D01*
X125069145Y-91365224D01*
X125032391Y-91350000D01*
X125032078Y-91350000D01*
X125121789Y-91260289D01*
X125209394Y-91129179D01*
X125269737Y-90983497D01*
X125300500Y-90828842D01*
X125300500Y-90671158D01*
X125300500Y-90671155D01*
X125300499Y-90671153D01*
X125269738Y-90516510D01*
X125269737Y-90516503D01*
X125209939Y-90372136D01*
X125200500Y-90324684D01*
X125200500Y-85366259D01*
X125220185Y-85299220D01*
X125272989Y-85253465D01*
X125277048Y-85251698D01*
X125379172Y-85209397D01*
X125379172Y-85209396D01*
X125379179Y-85209394D01*
X125510289Y-85121789D01*
X125621789Y-85010289D01*
X125709394Y-84879179D01*
X125769737Y-84733497D01*
X125800500Y-84578842D01*
X125800500Y-84421158D01*
X125800500Y-84421155D01*
X125800499Y-84421153D01*
X125769737Y-84266503D01*
X125769191Y-84265184D01*
X125709397Y-84120827D01*
X125709390Y-84120814D01*
X125621789Y-83989711D01*
X125621786Y-83989707D01*
X125510292Y-83878213D01*
X125510288Y-83878210D01*
X125379185Y-83790609D01*
X125379172Y-83790602D01*
X125233501Y-83730264D01*
X125233489Y-83730261D01*
X125078845Y-83699500D01*
X125078842Y-83699500D01*
X124921158Y-83699500D01*
X124921155Y-83699500D01*
X124766510Y-83730261D01*
X124766498Y-83730264D01*
X124620827Y-83790602D01*
X124620814Y-83790609D01*
X124489711Y-83878210D01*
X124489707Y-83878213D01*
X124378213Y-83989707D01*
X124378210Y-83989711D01*
X124290609Y-84120814D01*
X124290604Y-84120823D01*
X124230809Y-84265184D01*
X124203929Y-84305412D01*
X123955887Y-84553454D01*
X123879222Y-84668192D01*
X123826421Y-84795667D01*
X123826418Y-84795677D01*
X123799500Y-84931004D01*
X123799500Y-90324684D01*
X123790061Y-90372136D01*
X123730264Y-90516498D01*
X123730261Y-90516510D01*
X123713616Y-90600191D01*
X123681231Y-90662102D01*
X123620516Y-90696676D01*
X123591999Y-90700000D01*
X123488628Y-90700000D01*
X123343740Y-90728820D01*
X123343728Y-90728823D01*
X123238474Y-90772420D01*
X122436522Y-90772420D01*
X122331267Y-90728822D01*
X122331259Y-90728820D01*
X122186372Y-90700000D01*
X122038628Y-90700000D01*
X121893740Y-90728820D01*
X121893728Y-90728823D01*
X121788474Y-90772420D01*
X119550500Y-90772420D01*
X119550500Y-90671158D01*
X119550500Y-90671155D01*
X119550499Y-90671153D01*
X119519738Y-90516510D01*
X119519737Y-90516503D01*
X119459939Y-90372136D01*
X119459397Y-90370827D01*
X119459390Y-90370814D01*
X119371789Y-90239711D01*
X119371786Y-90239707D01*
X119361819Y-90229740D01*
X119328334Y-90168417D01*
X119325500Y-90142059D01*
X119325500Y-89674236D01*
X119325500Y-89674234D01*
X119286281Y-89527865D01*
X119210515Y-89396635D01*
X119103365Y-89289485D01*
X116336819Y-86522939D01*
X116303334Y-86461616D01*
X116300500Y-86435258D01*
X116300500Y-86421155D01*
X116300499Y-86421153D01*
X116269738Y-86266510D01*
X116269737Y-86266503D01*
X116269735Y-86266498D01*
X116209397Y-86120827D01*
X116209390Y-86120814D01*
X116121789Y-85989711D01*
X116121786Y-85989707D01*
X116010292Y-85878213D01*
X116010288Y-85878210D01*
X115879185Y-85790609D01*
X115879172Y-85790602D01*
X115733501Y-85730264D01*
X115733489Y-85730261D01*
X115578845Y-85699500D01*
X115578842Y-85699500D01*
X115421158Y-85699500D01*
X115421155Y-85699500D01*
X115266510Y-85730261D01*
X115266498Y-85730264D01*
X115120827Y-85790602D01*
X115120814Y-85790609D01*
X114989711Y-85878210D01*
X114989707Y-85878213D01*
X114878213Y-85989707D01*
X114878210Y-85989711D01*
X114790609Y-86120814D01*
X114790602Y-86120827D01*
X114730264Y-86266498D01*
X114730261Y-86266510D01*
X114699500Y-86421153D01*
X103500500Y-86421153D01*
X103500500Y-54446579D01*
X116510000Y-54446579D01*
X116510000Y-54500000D01*
X117236933Y-54500000D01*
X117235000Y-54507213D01*
X117235000Y-54992787D01*
X117236933Y-55000000D01*
X116510000Y-55000000D01*
X116510000Y-55053420D01*
X116550348Y-55256266D01*
X116550350Y-55256274D01*
X116629500Y-55447358D01*
X116629505Y-55447368D01*
X116744410Y-55619335D01*
X116744413Y-55619339D01*
X116890660Y-55765586D01*
X116890664Y-55765589D01*
X117062631Y-55880494D01*
X117062641Y-55880499D01*
X117253723Y-55959648D01*
X117253725Y-55959649D01*
X117310000Y-55970842D01*
X117310000Y-55159618D01*
X117360446Y-55210064D01*
X117434555Y-55252851D01*
X117517213Y-55275000D01*
X117602787Y-55275000D01*
X117685445Y-55252851D01*
X117759554Y-55210064D01*
X117810000Y-55159618D01*
X117810000Y-55970842D01*
X117866274Y-55959649D01*
X117866276Y-55959648D01*
X118057358Y-55880499D01*
X118057368Y-55880494D01*
X118229335Y-55765589D01*
X118229339Y-55765586D01*
X118375586Y-55619339D01*
X118375589Y-55619335D01*
X118490494Y-55447368D01*
X118490499Y-55447358D01*
X118569649Y-55256274D01*
X118569651Y-55256266D01*
X118609999Y-55053420D01*
X118610000Y-55053417D01*
X118610000Y-55000000D01*
X117883067Y-55000000D01*
X117885000Y-54992787D01*
X117885000Y-54507213D01*
X117883067Y-54500000D01*
X118610000Y-54500000D01*
X118610000Y-54446583D01*
X118609999Y-54446579D01*
X121350000Y-54446579D01*
X121350000Y-54500000D01*
X122076933Y-54500000D01*
X122075000Y-54507213D01*
X122075000Y-54992787D01*
X122076933Y-55000000D01*
X121350000Y-55000000D01*
X121350000Y-55053420D01*
X121390348Y-55256266D01*
X121390350Y-55256274D01*
X121469500Y-55447358D01*
X121469505Y-55447368D01*
X121584410Y-55619335D01*
X121584413Y-55619339D01*
X121730660Y-55765586D01*
X121730664Y-55765589D01*
X121902631Y-55880494D01*
X121902641Y-55880499D01*
X122093723Y-55959648D01*
X122093725Y-55959649D01*
X122150000Y-55970842D01*
X122150000Y-55159618D01*
X122200446Y-55210064D01*
X122274555Y-55252851D01*
X122357213Y-55275000D01*
X122442787Y-55275000D01*
X122525445Y-55252851D01*
X122599554Y-55210064D01*
X122650000Y-55159618D01*
X122650000Y-55970842D01*
X122706274Y-55959649D01*
X122706276Y-55959648D01*
X122897358Y-55880499D01*
X122897368Y-55880494D01*
X123069335Y-55765589D01*
X123069339Y-55765586D01*
X123215586Y-55619339D01*
X123215589Y-55619335D01*
X123330494Y-55447368D01*
X123330499Y-55447358D01*
X123409649Y-55256274D01*
X123409651Y-55256266D01*
X123449999Y-55053420D01*
X123450000Y-55053417D01*
X123450000Y-55000000D01*
X122723067Y-55000000D01*
X122725000Y-54992787D01*
X122725000Y-54507213D01*
X122723067Y-54500000D01*
X123450000Y-54500000D01*
X123450000Y-54446583D01*
X123449999Y-54446579D01*
X123409651Y-54243733D01*
X123409649Y-54243725D01*
X123330499Y-54052641D01*
X123330494Y-54052631D01*
X123215589Y-53880664D01*
X123215586Y-53880660D01*
X123069339Y-53734413D01*
X123069335Y-53734410D01*
X122897368Y-53619505D01*
X122897358Y-53619500D01*
X122706272Y-53540349D01*
X122706267Y-53540347D01*
X122650000Y-53529155D01*
X122650000Y-54340382D01*
X122599554Y-54289936D01*
X122525445Y-54247149D01*
X122442787Y-54225000D01*
X122357213Y-54225000D01*
X122274555Y-54247149D01*
X122200446Y-54289936D01*
X122150000Y-54340382D01*
X122150000Y-53529156D01*
X122149999Y-53529155D01*
X122093732Y-53540347D01*
X122093727Y-53540349D01*
X121902641Y-53619500D01*
X121902631Y-53619505D01*
X121730664Y-53734410D01*
X121730660Y-53734413D01*
X121584413Y-53880660D01*
X121584410Y-53880664D01*
X121469505Y-54052631D01*
X121469500Y-54052641D01*
X121390350Y-54243725D01*
X121390348Y-54243733D01*
X121350000Y-54446579D01*
X118609999Y-54446579D01*
X118569651Y-54243733D01*
X118569649Y-54243725D01*
X118490499Y-54052641D01*
X118490494Y-54052631D01*
X118375589Y-53880664D01*
X118375586Y-53880660D01*
X118229339Y-53734413D01*
X118229335Y-53734410D01*
X118057368Y-53619505D01*
X118057358Y-53619500D01*
X117866272Y-53540349D01*
X117866267Y-53540347D01*
X117810000Y-53529155D01*
X117810000Y-54340382D01*
X117759554Y-54289936D01*
X117685445Y-54247149D01*
X117602787Y-54225000D01*
X117517213Y-54225000D01*
X117434555Y-54247149D01*
X117360446Y-54289936D01*
X117310000Y-54340382D01*
X117310000Y-53529156D01*
X117309999Y-53529155D01*
X117253732Y-53540347D01*
X117253727Y-53540349D01*
X117062641Y-53619500D01*
X117062631Y-53619505D01*
X116890664Y-53734410D01*
X116890660Y-53734413D01*
X116744413Y-53880660D01*
X116744410Y-53880664D01*
X116629505Y-54052631D01*
X116629500Y-54052641D01*
X116550350Y-54243725D01*
X116550348Y-54243733D01*
X116510000Y-54446579D01*
X103500500Y-54446579D01*
X103500500Y-50624500D01*
X103520185Y-50557461D01*
X103572989Y-50511706D01*
X103624500Y-50500500D01*
X116363437Y-50500500D01*
X116430476Y-50520185D01*
G37*
%TD.AperFunction*%
%TD*%
M02*
