M48
; DRILL file {KiCad 9.0.1} date 2025-04-23T18:23:50-0700
; FORMAT={-:-/ absolute / metric / decimal}
; #@! TF.CreationDate,2025-04-23T18:23:50-07:00
; #@! TF.GenerationSoftware,Kicad,Pcbnew,9.0.1
; #@! TF.FileFunction,Plated,1,2,PTH
FMAT,2
METRIC
; #@! TA.AperFunction,Plated,PTH,ComponentDrill
T1C0.200
; #@! TA.AperFunction,Plated,PTH,ViaDrill
T2C0.300
; #@! TA.AperFunction,Plated,PTH,ComponentDrill
T3C0.650
; #@! TA.AperFunction,Plated,PTH,ComponentDrill
T4C0.700
%
G90
G05
T1
X122.112Y-91.45
X122.112Y-92.9
X122.112Y-94.35
X123.562Y-91.45
X123.562Y-92.9
X123.562Y-94.35
X125.012Y-91.45
X125.012Y-92.9
X125.012Y-94.35
T2
X106.0Y-56.25
X110.25Y-78.5
X110.5Y-109.0
X114.25Y-90.25
X114.25Y-92.25
X114.25Y-94.25
X115.5Y-86.5
X118.25Y-105.0
X118.5Y-56.25
X118.5Y-92.1
X118.75Y-90.75
X119.5Y-79.5
X119.514Y-72.083
X119.75Y-102.5
X120.5Y-108.25
X121.359Y-92.1
X123.495Y-95.143
X124.5Y-90.75
X124.5Y-98.25
X124.75Y-102.5
X125.0Y-84.5
X125.25Y-110.0
X125.692Y-92.499
X126.25Y-88.5
X127.5Y-105.0
X129.25Y-84.0
X129.25Y-85.75
X129.25Y-92.5
X131.0Y-84.5
X132.75Y-76.0
X132.875Y-63.625
X133.0Y-90.0
X133.0Y-92.0
X133.0Y-94.0
X133.0Y-97.5
X137.25Y-100.75
T3
G00X117.56Y-54.55
M15
G01X117.56Y-54.95
M16
G05
G00X122.4Y-54.55
M15
G01X122.4Y-54.95
M16
G05
T4
G00X117.25Y-51.5
M15
G01X117.25Y-52.0
M16
G05
G00X122.71Y-51.5
M15
G01X122.71Y-52.0
M16
G05
M30
