%TF.GenerationSoftware,KiCad,Pcbnew,9.0.1*%
%TF.CreationDate,2025-04-23T18:23:55-07:00*%
%TF.ProjectId,rp2350,72703233-3530-42e6-9b69-6361645f7063,rev?*%
%TF.SameCoordinates,Original*%
%TF.FileFunction,Copper,L1,Top*%
%TF.FilePolarity,Positive*%
%FSLAX46Y46*%
G04 Gerber Fmt 4.6, Leading zero omitted, Abs format (unit mm)*
G04 Created by KiCad (PCBNEW 9.0.1) date 2025-04-23 18:23:55*
%MOMM*%
%LPD*%
G01*
G04 APERTURE LIST*
G04 Aperture macros list*
%AMRoundRect*
0 Rectangle with rounded corners*
0 $1 Rounding radius*
0 $2 $3 $4 $5 $6 $7 $8 $9 X,Y pos of 4 corners*
0 Add a 4 corners polygon primitive as box body*
4,1,4,$2,$3,$4,$5,$6,$7,$8,$9,$2,$3,0*
0 Add four circle primitives for the rounded corners*
1,1,$1+$1,$2,$3*
1,1,$1+$1,$4,$5*
1,1,$1+$1,$6,$7*
1,1,$1+$1,$8,$9*
0 Add four rect primitives between the rounded corners*
20,1,$1+$1,$2,$3,$4,$5,0*
20,1,$1+$1,$4,$5,$6,$7,0*
20,1,$1+$1,$6,$7,$8,$9,0*
20,1,$1+$1,$8,$9,$2,$3,0*%
G04 Aperture macros list end*
%TA.AperFunction,EtchedComponent*%
%ADD10C,0.000000*%
%TD*%
%TA.AperFunction,SMDPad,CuDef*%
%ADD11R,2.790000X0.740000*%
%TD*%
%TA.AperFunction,SMDPad,CuDef*%
%ADD12R,1.000000X1.500000*%
%TD*%
%TA.AperFunction,SMDPad,CuDef*%
%ADD13RoundRect,0.050000X-0.350000X-0.050000X0.350000X-0.050000X0.350000X0.050000X-0.350000X0.050000X0*%
%TD*%
%TA.AperFunction,SMDPad,CuDef*%
%ADD14RoundRect,0.050000X-0.050000X-0.350000X0.050000X-0.350000X0.050000X0.350000X-0.050000X0.350000X0*%
%TD*%
%TA.AperFunction,HeatsinkPad*%
%ADD15C,0.500000*%
%TD*%
%TA.AperFunction,HeatsinkPad*%
%ADD16R,3.400000X3.400000*%
%TD*%
%TA.AperFunction,SMDPad,CuDef*%
%ADD17R,1.400000X1.200000*%
%TD*%
%TA.AperFunction,SMDPad,CuDef*%
%ADD18R,1.825000X0.700000*%
%TD*%
%TA.AperFunction,SMDPad,CuDef*%
%ADD19R,2.000000X1.500000*%
%TD*%
%TA.AperFunction,SMDPad,CuDef*%
%ADD20R,1.350000X2.000000*%
%TD*%
%TA.AperFunction,HeatsinkPad*%
%ADD21O,1.350000X1.700000*%
%TD*%
%TA.AperFunction,HeatsinkPad*%
%ADD22O,1.100000X1.500000*%
%TD*%
%TA.AperFunction,SMDPad,CuDef*%
%ADD23R,1.430000X2.500000*%
%TD*%
%TA.AperFunction,SMDPad,CuDef*%
%ADD24R,0.400000X1.650000*%
%TD*%
%TA.AperFunction,SMDPad,CuDef*%
%ADD25RoundRect,0.200000X0.275000X-0.200000X0.275000X0.200000X-0.275000X0.200000X-0.275000X-0.200000X0*%
%TD*%
%TA.AperFunction,SMDPad,CuDef*%
%ADD26RoundRect,0.162500X-0.650000X-0.162500X0.650000X-0.162500X0.650000X0.162500X-0.650000X0.162500X0*%
%TD*%
%TA.AperFunction,SMDPad,CuDef*%
%ADD27RoundRect,0.200000X-0.200000X-0.275000X0.200000X-0.275000X0.200000X0.275000X-0.200000X0.275000X0*%
%TD*%
%TA.AperFunction,SMDPad,CuDef*%
%ADD28RoundRect,0.200000X0.200000X0.275000X-0.200000X0.275000X-0.200000X-0.275000X0.200000X-0.275000X0*%
%TD*%
%TA.AperFunction,SMDPad,CuDef*%
%ADD29RoundRect,0.225000X-0.225000X-0.250000X0.225000X-0.250000X0.225000X0.250000X-0.225000X0.250000X0*%
%TD*%
%TA.AperFunction,SMDPad,CuDef*%
%ADD30R,1.400000X1.600000*%
%TD*%
%TA.AperFunction,SMDPad,CuDef*%
%ADD31RoundRect,0.225000X0.225000X0.250000X-0.225000X0.250000X-0.225000X-0.250000X0.225000X-0.250000X0*%
%TD*%
%TA.AperFunction,SMDPad,CuDef*%
%ADD32RoundRect,0.200000X-0.275000X0.200000X-0.275000X-0.200000X0.275000X-0.200000X0.275000X0.200000X0*%
%TD*%
%TA.AperFunction,SMDPad,CuDef*%
%ADD33RoundRect,0.225000X-0.250000X0.225000X-0.250000X-0.225000X0.250000X-0.225000X0.250000X0.225000X0*%
%TD*%
%TA.AperFunction,SMDPad,CuDef*%
%ADD34R,1.000000X1.600000*%
%TD*%
%TA.AperFunction,SMDPad,CuDef*%
%ADD35RoundRect,0.375000X-0.375000X0.625000X-0.375000X-0.625000X0.375000X-0.625000X0.375000X0.625000X0*%
%TD*%
%TA.AperFunction,SMDPad,CuDef*%
%ADD36RoundRect,0.500000X-1.400000X0.500000X-1.400000X-0.500000X1.400000X-0.500000X1.400000X0.500000X0*%
%TD*%
%TA.AperFunction,SMDPad,CuDef*%
%ADD37RoundRect,0.225000X0.250000X-0.225000X0.250000X0.225000X-0.250000X0.225000X-0.250000X-0.225000X0*%
%TD*%
%TA.AperFunction,ViaPad*%
%ADD38C,0.600000*%
%TD*%
%TA.AperFunction,Conductor*%
%ADD39C,0.150000*%
%TD*%
%TA.AperFunction,Conductor*%
%ADD40C,0.200000*%
%TD*%
%TA.AperFunction,Conductor*%
%ADD41C,0.600000*%
%TD*%
%TA.AperFunction,Conductor*%
%ADD42C,0.100000*%
%TD*%
G04 APERTURE END LIST*
D10*
%TA.AperFunction,EtchedComponent*%
%TO.C,JP1*%
G36*
X120100000Y-85300000D02*
G01*
X119600000Y-85300000D01*
X119600000Y-84700000D01*
X120100000Y-84700000D01*
X120100000Y-85300000D01*
G37*
%TD.AperFunction*%
%TD*%
D11*
%TO.P,J1,01,01*%
%TO.N,+3V3*%
X110500000Y-102170000D03*
%TO.P,J1,02,02*%
%TO.N,/SWDIO*%
X114570000Y-102170000D03*
%TO.P,J1,03,03*%
%TO.N,GND*%
X110500000Y-103440000D03*
%TO.P,J1,04,04*%
%TO.N,/SWCLK*%
X114570000Y-103440000D03*
%TO.P,J1,05,05*%
%TO.N,GND*%
X110500000Y-104710000D03*
%TO.P,J1,06,06*%
%TO.N,unconnected-(J1-Pad06)*%
X114570000Y-104710000D03*
%TO.P,J1,08,08*%
%TO.N,unconnected-(J1-Pad08)*%
X114570000Y-105980000D03*
%TO.P,J1,09,09*%
%TO.N,GND*%
X110500000Y-107250000D03*
%TO.P,J1,10,10*%
%TO.N,/RUN*%
X114570000Y-107250000D03*
%TD*%
D12*
%TO.P,JP1,2,B*%
%TO.N,Net-(JP1-B)*%
X120500000Y-85000000D03*
%TO.P,JP1,1,A*%
%TO.N,+3V3*%
X119200000Y-85000000D03*
%TD*%
D13*
%TO.P,U4,1,IOVDD*%
%TO.N,+3V3*%
X120112500Y-90100000D03*
%TO.P,U4,2,GPIO0*%
%TO.N,/GPIO0*%
X120112500Y-90500000D03*
%TO.P,U4,3,GPIO1*%
%TO.N,unconnected-(U4-GPIO1-Pad3)*%
X120112500Y-90900000D03*
%TO.P,U4,4,GPIO2*%
%TO.N,unconnected-(U4-GPIO2-Pad4)*%
X120112500Y-91300000D03*
%TO.P,U4,5,GPIO3*%
%TO.N,unconnected-(U4-GPIO3-Pad5)*%
X120112500Y-91700000D03*
%TO.P,U4,6,DVDD*%
%TO.N,+1V1*%
X120112500Y-92100000D03*
%TO.P,U4,7,GPIO4*%
%TO.N,unconnected-(U4-GPIO4-Pad7)*%
X120112500Y-92500000D03*
%TO.P,U4,8,GPIO5*%
%TO.N,unconnected-(U4-GPIO5-Pad8)*%
X120112500Y-92900000D03*
%TO.P,U4,9,GPIO6*%
%TO.N,unconnected-(U4-GPIO6-Pad9)*%
X120112500Y-93300000D03*
%TO.P,U4,10,GPIO7*%
%TO.N,unconnected-(U4-GPIO7-Pad10)*%
X120112500Y-93700000D03*
%TO.P,U4,11,IOVDD*%
%TO.N,+3V3*%
X120112500Y-94100000D03*
%TO.P,U4,12,GPIO8*%
%TO.N,unconnected-(U4-GPIO8-Pad12)*%
X120112500Y-94500000D03*
%TO.P,U4,13,GPIO9*%
%TO.N,unconnected-(U4-GPIO9-Pad13)*%
X120112500Y-94900000D03*
%TO.P,U4,14,GPIO10*%
%TO.N,unconnected-(U4-GPIO10-Pad14)*%
X120112500Y-95300000D03*
%TO.P,U4,15,GPIO11*%
%TO.N,unconnected-(U4-GPIO11-Pad15)*%
X120112500Y-95700000D03*
D14*
%TO.P,U4,16,GPIO12*%
%TO.N,unconnected-(U4-GPIO12-Pad16)*%
X120762500Y-96350000D03*
%TO.P,U4,17,GPIO13*%
%TO.N,unconnected-(U4-GPIO13-Pad17)*%
X121162500Y-96350000D03*
%TO.P,U4,18,GPIO14*%
%TO.N,unconnected-(U4-GPIO14-Pad18)*%
X121562500Y-96350000D03*
%TO.P,U4,19,GPIO15*%
%TO.N,unconnected-(U4-GPIO15-Pad19)*%
X121962500Y-96350000D03*
%TO.P,U4,20,IOVDD*%
%TO.N,+3V3*%
X122362500Y-96350000D03*
%TO.P,U4,21,XIN*%
%TO.N,/XIN*%
X122762500Y-96350000D03*
%TO.P,U4,22,XOUT*%
%TO.N,/XOUT*%
X123162500Y-96350000D03*
%TO.P,U4,23,DVDD*%
%TO.N,+1V1*%
X123562500Y-96350000D03*
%TO.P,U4,24,SWCLK*%
%TO.N,/SWCLK*%
X123962500Y-96350000D03*
%TO.P,U4,25,SWDIO*%
%TO.N,/SWDIO*%
X124362500Y-96350000D03*
%TO.P,U4,26,RUN*%
%TO.N,/RUN*%
X124762500Y-96350000D03*
%TO.P,U4,27,GPIO16*%
%TO.N,unconnected-(U4-GPIO16-Pad27)*%
X125162500Y-96350000D03*
%TO.P,U4,28,GPIO17*%
%TO.N,unconnected-(U4-GPIO17-Pad28)*%
X125562500Y-96350000D03*
%TO.P,U4,29,GPIO18*%
%TO.N,unconnected-(U4-GPIO18-Pad29)*%
X125962500Y-96350000D03*
%TO.P,U4,30,IOVDD*%
%TO.N,+3V3*%
X126362500Y-96350000D03*
D13*
%TO.P,U4,31,GPIO19*%
%TO.N,unconnected-(U4-GPIO19-Pad31)*%
X127012500Y-95700000D03*
%TO.P,U4,32,GPIO20*%
%TO.N,unconnected-(U4-GPIO20-Pad32)*%
X127012500Y-95300000D03*
%TO.P,U4,33,GPIO21*%
%TO.N,unconnected-(U4-GPIO21-Pad33)*%
X127012500Y-94900000D03*
%TO.P,U4,34,GPIO22*%
%TO.N,unconnected-(U4-GPIO22-Pad34)*%
X127012500Y-94500000D03*
%TO.P,U4,35,GPIO23*%
%TO.N,unconnected-(U4-GPIO23-Pad35)*%
X127012500Y-94100000D03*
%TO.P,U4,36,GPIO24*%
%TO.N,unconnected-(U4-GPIO24-Pad36)*%
X127012500Y-93700000D03*
%TO.P,U4,37,GPIO25*%
%TO.N,unconnected-(U4-GPIO25-Pad37)*%
X127012500Y-93300000D03*
%TO.P,U4,38,IOVDD*%
%TO.N,+3V3*%
X127012500Y-92900000D03*
%TO.P,U4,39,DVDD*%
%TO.N,+1V1*%
X127012500Y-92500000D03*
%TO.P,U4,40,GPIO26_ADC0*%
%TO.N,unconnected-(U4-GPIO26_ADC0-Pad40)*%
X127012500Y-92100000D03*
%TO.P,U4,41,GPIO27_ADC1*%
%TO.N,unconnected-(U4-GPIO27_ADC1-Pad41)*%
X127012500Y-91700000D03*
%TO.P,U4,42,GPIO28_ADC2*%
%TO.N,unconnected-(U4-GPIO28_ADC2-Pad42)*%
X127012500Y-91300000D03*
%TO.P,U4,43,GPIO29_ADC3*%
%TO.N,unconnected-(U4-GPIO29_ADC3-Pad43)*%
X127012500Y-90900000D03*
%TO.P,U4,44,ADC_AVDD*%
%TO.N,+3V3*%
X127012500Y-90500000D03*
%TO.P,U4,45,IOVDD*%
X127012500Y-90100000D03*
D14*
%TO.P,U4,46,VREG_AVDD*%
%TO.N,Net-(U4-VREG_AVDD)*%
X126362500Y-89450000D03*
%TO.P,U4,47,VREG_PGND*%
%TO.N,GND*%
X125962500Y-89450000D03*
%TO.P,U4,48,VREG_LX*%
%TO.N,Net-(U4-VREG_LX)*%
X125562500Y-89450000D03*
%TO.P,U4,49,VREG_VIN*%
%TO.N,+3V3*%
X125162500Y-89450000D03*
%TO.P,U4,50,VREG_FB*%
%TO.N,+1V1*%
X124762500Y-89450000D03*
%TO.P,U4,51,USB_DM*%
%TO.N,Net-(U4-USB_DM)*%
X124362500Y-89450000D03*
%TO.P,U4,52,USB_DP*%
%TO.N,Net-(U4-USB_DP)*%
X123962500Y-89450000D03*
%TO.P,U4,53,USB_OTP_VDD*%
%TO.N,Net-(JP1-B)*%
X123562500Y-89450000D03*
%TO.P,U4,54,QSPI_IOVDD*%
%TO.N,+3V3*%
X123162500Y-89450000D03*
%TO.P,U4,55,QSPI_SD3*%
%TO.N,/QSPI_SD3*%
X122762500Y-89450000D03*
%TO.P,U4,56,QSPI_SCLK*%
%TO.N,/QSPI_SCLK*%
X122362500Y-89450000D03*
%TO.P,U4,57,QSPI_SD0*%
%TO.N,/QSPI_SD0*%
X121962500Y-89450000D03*
%TO.P,U4,58,QSPI_SD2*%
%TO.N,/QSPI_SD2*%
X121562500Y-89450000D03*
%TO.P,U4,59,QSPI_SD1*%
%TO.N,/QSPI_SD1*%
X121162500Y-89450000D03*
%TO.P,U4,60,QSPI_SS*%
%TO.N,/QSPI_SS*%
X120762500Y-89450000D03*
D15*
%TO.P,U4,61,GND*%
%TO.N,GND*%
X122112500Y-91450000D03*
X122112500Y-92900000D03*
X122112500Y-94350000D03*
X123562500Y-91450000D03*
X123562500Y-92900000D03*
D16*
X123562500Y-92900000D03*
D15*
X123562500Y-94350000D03*
X125012500Y-91450000D03*
X125012500Y-92900000D03*
X125012500Y-94350000D03*
%TD*%
D17*
%TO.P,Y1,1,1*%
%TO.N,/XIN*%
X121750000Y-109950000D03*
%TO.P,Y1,2,2*%
%TO.N,GND*%
X123950000Y-109950000D03*
%TO.P,Y1,3,3*%
%TO.N,Net-(C2-Pad2)*%
X123950000Y-108250000D03*
%TO.P,Y1,4,4*%
%TO.N,GND*%
X121750000Y-108250000D03*
%TD*%
D18*
%TO.P,J3,6,Shield*%
%TO.N,GND*%
X116980000Y-53430000D03*
D19*
X117080000Y-54750000D03*
D20*
X117230000Y-52680000D03*
D21*
X117250000Y-51750000D03*
D22*
X117560000Y-54750000D03*
D23*
X119020000Y-51480000D03*
X120940000Y-51480000D03*
D22*
X122400000Y-54750000D03*
D21*
X122710000Y-51750000D03*
D20*
X122710000Y-52680000D03*
D19*
X122830000Y-54730000D03*
D18*
X122930000Y-53430000D03*
D24*
%TO.P,J3,5,GND*%
X118680000Y-54630000D03*
%TO.P,J3,4,ID*%
%TO.N,unconnected-(J3-ID-Pad4)*%
X119330000Y-54630000D03*
%TO.P,J3,3,D+*%
%TO.N,/DP*%
X119980000Y-54630000D03*
%TO.P,J3,2,D-*%
%TO.N,/DM*%
X120630000Y-54630000D03*
%TO.P,J3,1,VBUS*%
%TO.N,VBUS*%
X121280000Y-54630000D03*
%TD*%
D25*
%TO.P,R1,1*%
%TO.N,/GPIO0*%
X110461500Y-71745000D03*
%TO.P,R1,2*%
%TO.N,Net-(U2-~{CS})*%
X110461500Y-70095000D03*
%TD*%
D26*
%TO.P,U2,1,~{CS}*%
%TO.N,Net-(U2-~{CS})*%
X108874000Y-74690000D03*
%TO.P,U2,2,DO/IO_{1}*%
%TO.N,/QSPI_SD1*%
X108874000Y-75960000D03*
%TO.P,U2,3,~{WP}/IO_{2}*%
%TO.N,/QSPI_SD2*%
X108874000Y-77230000D03*
%TO.P,U2,4,GND*%
%TO.N,GND*%
X108874000Y-78500000D03*
%TO.P,U2,5,DI/IO_{0}*%
%TO.N,/QSPI_SD0*%
X116049000Y-78500000D03*
%TO.P,U2,6,CLK*%
%TO.N,/QSPI_SCLK*%
X116049000Y-77230000D03*
%TO.P,U2,7,~{HOLD}/~{RESET}/IO_{3}*%
%TO.N,/QSPI_SD3*%
X116049000Y-75960000D03*
%TO.P,U2,8,VCC*%
%TO.N,+3V3*%
X116049000Y-74690000D03*
%TD*%
D27*
%TO.P,R2,1*%
%TO.N,/QSPI_SS*%
X106724000Y-71500000D03*
%TO.P,R2,2*%
%TO.N,Net-(U2-~{CS})*%
X108374000Y-71500000D03*
%TD*%
D25*
%TO.P,R3,1*%
%TO.N,+3V3*%
X114461500Y-71745000D03*
%TO.P,R3,2*%
%TO.N,Net-(U2-~{CS})*%
X114461500Y-70095000D03*
%TD*%
D28*
%TO.P,R9,1*%
%TO.N,/~{USB_BOOT}*%
X108374000Y-69500000D03*
%TO.P,R9,2*%
%TO.N,/QSPI_SS*%
X106724000Y-69500000D03*
%TD*%
D29*
%TO.P,C3,1*%
%TO.N,+3V3*%
X116961500Y-72095000D03*
%TO.P,C3,2*%
%TO.N,GND*%
X118511500Y-72095000D03*
%TD*%
D30*
%TO.P,SW2,2,2*%
%TO.N,/RUN*%
X131500000Y-110100000D03*
X131500000Y-102900000D03*
%TO.P,SW2,1,1*%
%TO.N,Net-(R7-Pad1)*%
X134500000Y-110100000D03*
X134500000Y-102900000D03*
%TD*%
D29*
%TO.P,C4,1*%
%TO.N,+3V3*%
X126725000Y-85750000D03*
%TO.P,C4,2*%
%TO.N,GND*%
X128275000Y-85750000D03*
%TD*%
D31*
%TO.P,C13,1*%
%TO.N,+3V3*%
X117000000Y-90250000D03*
%TO.P,C13,2*%
%TO.N,GND*%
X115450000Y-90250000D03*
%TD*%
%TO.P,C2,1*%
%TO.N,GND*%
X126650000Y-105000000D03*
%TO.P,C2,2*%
%TO.N,Net-(C2-Pad2)*%
X125100000Y-105000000D03*
%TD*%
%TO.P,C8,1*%
%TO.N,+1V1*%
X117000000Y-92250000D03*
%TO.P,C8,2*%
%TO.N,GND*%
X115450000Y-92250000D03*
%TD*%
D32*
%TO.P,R8,1*%
%TO.N,+3V3*%
X131000000Y-78675000D03*
%TO.P,R8,2*%
%TO.N,Net-(U4-VREG_AVDD)*%
X131000000Y-80325000D03*
%TD*%
D29*
%TO.P,C6,1*%
%TO.N,+1V1*%
X126700000Y-84000000D03*
%TO.P,C6,2*%
%TO.N,GND*%
X128250000Y-84000000D03*
%TD*%
%TO.P,C16,1*%
%TO.N,+3V3*%
X130450000Y-97500000D03*
%TO.P,C16,2*%
%TO.N,GND*%
X132000000Y-97500000D03*
%TD*%
D33*
%TO.P,C7,1*%
%TO.N,Net-(U4-VREG_AVDD)*%
X131000000Y-81950000D03*
%TO.P,C7,2*%
%TO.N,GND*%
X131000000Y-83500000D03*
%TD*%
D29*
%TO.P,C9,1*%
%TO.N,+3V3*%
X130225000Y-76000000D03*
%TO.P,C9,2*%
%TO.N,GND*%
X131775000Y-76000000D03*
%TD*%
D34*
%TO.P,L1,1,1*%
%TO.N,+1V1*%
X126500000Y-82000000D03*
%TO.P,L1,2,2*%
%TO.N,Net-(U4-VREG_LX)*%
X128500000Y-82000000D03*
%TD*%
D25*
%TO.P,R11,1*%
%TO.N,Net-(U4-USB_DM)*%
X123000000Y-82150000D03*
%TO.P,R11,2*%
%TO.N,/DM*%
X123000000Y-80500000D03*
%TD*%
D29*
%TO.P,C1,1*%
%TO.N,GND*%
X119100000Y-105000000D03*
%TO.P,C1,2*%
%TO.N,/XIN*%
X120650000Y-105000000D03*
%TD*%
%TO.P,C11,1*%
%TO.N,+1V1*%
X130450000Y-92000000D03*
%TO.P,C11,2*%
%TO.N,GND*%
X132000000Y-92000000D03*
%TD*%
D33*
%TO.P,C10,1*%
%TO.N,+1V1*%
X124750000Y-99950000D03*
%TO.P,C10,2*%
%TO.N,GND*%
X124750000Y-101500000D03*
%TD*%
D25*
%TO.P,R10,1*%
%TO.N,Net-(U4-USB_DP)*%
X121250000Y-82150000D03*
%TO.P,R10,2*%
%TO.N,/DP*%
X121250000Y-80500000D03*
%TD*%
D29*
%TO.P,C5,1*%
%TO.N,VBUS*%
X130225000Y-62500000D03*
%TO.P,C5,2*%
%TO.N,GND*%
X131775000Y-62500000D03*
%TD*%
D31*
%TO.P,C15,1*%
%TO.N,+3V3*%
X117000000Y-94250000D03*
%TO.P,C15,2*%
%TO.N,GND*%
X115450000Y-94250000D03*
%TD*%
D29*
%TO.P,C17,1*%
%TO.N,+3V3*%
X130450000Y-90000000D03*
%TO.P,C17,2*%
%TO.N,GND*%
X132000000Y-90000000D03*
%TD*%
%TO.P,C14,1*%
%TO.N,+3V3*%
X130450000Y-94000000D03*
%TO.P,C14,2*%
%TO.N,GND*%
X132000000Y-94000000D03*
%TD*%
D30*
%TO.P,SW1,1,1*%
%TO.N,GND*%
X106000000Y-60000000D03*
X106000000Y-52800000D03*
%TO.P,SW1,2,2*%
%TO.N,/~{USB_BOOT}*%
X109000000Y-60000000D03*
X109000000Y-52800000D03*
%TD*%
D35*
%TO.P,U3,1,GND*%
%TO.N,GND*%
X133300000Y-65850000D03*
%TO.P,U3,2,VO*%
%TO.N,+3V3*%
X131000000Y-65850000D03*
D36*
X131000000Y-72150000D03*
D35*
%TO.P,U3,3,VI*%
%TO.N,VBUS*%
X128700000Y-65850000D03*
%TD*%
D37*
%TO.P,C12,1*%
%TO.N,+3V3*%
X119500000Y-82050000D03*
%TO.P,C12,2*%
%TO.N,GND*%
X119500000Y-80500000D03*
%TD*%
D33*
%TO.P,C18,1*%
%TO.N,+3V3*%
X119800000Y-99950000D03*
%TO.P,C18,2*%
%TO.N,GND*%
X119800000Y-101500000D03*
%TD*%
D25*
%TO.P,R6,1*%
%TO.N,Net-(C2-Pad2)*%
X122800000Y-101500000D03*
%TO.P,R6,2*%
%TO.N,/XOUT*%
X122800000Y-99850000D03*
%TD*%
D27*
%TO.P,R7,1*%
%TO.N,Net-(R7-Pad1)*%
X134425000Y-100750000D03*
%TO.P,R7,2*%
%TO.N,GND*%
X136075000Y-100750000D03*
%TD*%
D38*
%TO.N,GND*%
X110500000Y-109000000D03*
X125250000Y-110000000D03*
X120500000Y-108250000D03*
X119513646Y-72083265D03*
%TO.N,/GPIO0*%
X118750000Y-90750000D03*
X115500000Y-86500000D03*
%TO.N,GND*%
X118500000Y-56250000D03*
X110250000Y-78500000D03*
X126250000Y-88500000D03*
X119500000Y-79500000D03*
X133000000Y-97500000D03*
X133000000Y-90000000D03*
X133000000Y-92000000D03*
X133000000Y-94000000D03*
X137250000Y-100750000D03*
X132875000Y-63625000D03*
X132750000Y-76000000D03*
X127500000Y-105000000D03*
X118250000Y-105000000D03*
X131000000Y-84500000D03*
X129250000Y-85750000D03*
X129250000Y-84000000D03*
%TO.N,+1V1*%
X125000000Y-84500000D03*
X124500000Y-90750000D03*
%TO.N,GND*%
X119750000Y-102500000D03*
X124750000Y-102500000D03*
X106000000Y-56250000D03*
X114250000Y-94250000D03*
X114250000Y-92250000D03*
X114250000Y-90250000D03*
%TO.N,+1V1*%
X123494987Y-95143049D03*
X124500000Y-98250000D03*
X118500000Y-92100000D03*
X121359258Y-92099966D03*
X129250000Y-92500000D03*
X125692179Y-92498886D03*
%TD*%
D39*
%TO.N,/SWDIO*%
X117250000Y-107750000D02*
X117250000Y-103500000D01*
X121000000Y-111500000D02*
X117250000Y-107750000D01*
X129750000Y-111500000D02*
X121000000Y-111500000D01*
X117250000Y-103500000D02*
X115920000Y-102170000D01*
X129750000Y-102250000D02*
X129750000Y-111500000D01*
X115920000Y-102170000D02*
X114570000Y-102170000D01*
X124362500Y-96862500D02*
X129750000Y-102250000D01*
X124362500Y-96350000D02*
X124362500Y-96862500D01*
%TO.N,/RUN*%
X131500000Y-111000000D02*
X131500000Y-110100000D01*
X120145000Y-111800000D02*
X130700000Y-111800000D01*
X115595000Y-107250000D02*
X120145000Y-111800000D01*
X114570000Y-107250000D02*
X115595000Y-107250000D01*
X130700000Y-111800000D02*
X131500000Y-111000000D01*
D40*
%TO.N,+3V3*%
X112720000Y-99950000D02*
X119800000Y-99950000D01*
X110500000Y-102170000D02*
X112720000Y-99950000D01*
D39*
%TO.N,/SWCLK*%
X113190000Y-103440000D02*
X114570000Y-103440000D01*
X112949000Y-103199000D02*
X113190000Y-103440000D01*
X112949000Y-101574000D02*
X112949000Y-103199000D01*
X116191000Y-101574000D02*
X112949000Y-101574000D01*
X117724000Y-103107000D02*
X116191000Y-101574000D01*
X117724000Y-107724000D02*
X117724000Y-103107000D01*
X121000000Y-111000000D02*
X117724000Y-107724000D01*
X129250000Y-111000000D02*
X121000000Y-111000000D01*
X129250000Y-102250000D02*
X129250000Y-111000000D01*
X123962500Y-96962500D02*
X129250000Y-102250000D01*
X123962500Y-96350000D02*
X123962500Y-96962500D01*
%TO.N,GND*%
X110500000Y-103440000D02*
X110500000Y-109000000D01*
%TO.N,/~{USB_BOOT}*%
X108374000Y-60626000D02*
X109000000Y-60000000D01*
X108374000Y-69500000D02*
X108374000Y-60626000D01*
%TO.N,/DM*%
X120630000Y-56955736D02*
X123000000Y-59325736D01*
X123000000Y-80500000D02*
X123000000Y-59325736D01*
%TO.N,/DP*%
X119980000Y-56730000D02*
X121250000Y-58000000D01*
X121250000Y-80500000D02*
X121250000Y-58000000D01*
%TO.N,Net-(U4-USB_DM)*%
X124343503Y-85937500D02*
X124343503Y-89431003D01*
X124343503Y-89431003D02*
X124362500Y-89450000D01*
X123000000Y-84593997D02*
X124343503Y-85937500D01*
X123000000Y-82150000D02*
X123000000Y-84593997D01*
%TO.N,Net-(U4-USB_DP)*%
X123962500Y-89450000D02*
X123962500Y-87250000D01*
X121250000Y-84537500D02*
X121250000Y-82150000D01*
X123962500Y-87250000D02*
X121250000Y-84537500D01*
D40*
%TO.N,Net-(JP1-B)*%
X123562500Y-88062500D02*
X123562500Y-89450000D01*
X120500000Y-85000000D02*
X123562500Y-88062500D01*
%TO.N,+3V3*%
X118335750Y-80885750D02*
X118335750Y-76164250D01*
X119500000Y-82050000D02*
X118335750Y-80885750D01*
X119200000Y-82350000D02*
X119500000Y-82050000D01*
X119200000Y-85000000D02*
X119200000Y-82350000D01*
X116861499Y-74690000D02*
X116049000Y-74690000D01*
X118335750Y-76164250D02*
X116861499Y-74690000D01*
X123162500Y-88500000D02*
X123162500Y-89450000D01*
X120912500Y-86250000D02*
X123162500Y-88500000D01*
X119750000Y-86250000D02*
X120912500Y-86250000D01*
X119200000Y-85700000D02*
X119750000Y-86250000D01*
X119200000Y-85000000D02*
X119200000Y-85700000D01*
D39*
X123162500Y-90103389D02*
X123164666Y-90105555D01*
D40*
X123162500Y-89450000D02*
X123162500Y-90103389D01*
D39*
X126285853Y-90100000D02*
X126284149Y-90098296D01*
D40*
X127012500Y-90100000D02*
X126285853Y-90100000D01*
X127650000Y-92900000D02*
X127012500Y-92900000D01*
X128750000Y-94000000D02*
X127650000Y-92900000D01*
X130450000Y-94000000D02*
X128750000Y-94000000D01*
D39*
%TO.N,/QSPI_SD0*%
X121962500Y-88962500D02*
X121962500Y-89450000D01*
X118000000Y-87750000D02*
X120750000Y-87750000D01*
X116000000Y-85750000D02*
X118000000Y-87750000D01*
X116000000Y-78549000D02*
X116000000Y-85750000D01*
X120750000Y-87750000D02*
X121962500Y-88962500D01*
X116049000Y-78500000D02*
X116000000Y-78549000D01*
%TO.N,/GPIO0*%
X111000000Y-82000000D02*
X115500000Y-86500000D01*
X111000000Y-72283500D02*
X111000000Y-82000000D01*
X110461500Y-71745000D02*
X111000000Y-72283500D01*
%TO.N,/QSPI_SD2*%
X120788178Y-88250000D02*
X121562500Y-89024322D01*
X121562500Y-89024322D02*
X121562500Y-89450000D01*
X116250000Y-88250000D02*
X120788178Y-88250000D01*
X107750000Y-79750000D02*
X116250000Y-88250000D01*
X107750000Y-77541501D02*
X107750000Y-79750000D01*
X108061501Y-77230000D02*
X107750000Y-77541501D01*
X108874000Y-77230000D02*
X108061501Y-77230000D01*
%TO.N,GND*%
X108874000Y-78500000D02*
X110250000Y-78500000D01*
%TO.N,/QSPI_SD1*%
X116000000Y-88750000D02*
X120862500Y-88750000D01*
X107299000Y-80049000D02*
X116000000Y-88750000D01*
X108061501Y-75960000D02*
X107299000Y-76722501D01*
X108874000Y-75960000D02*
X108061501Y-75960000D01*
X107299000Y-76722501D02*
X107299000Y-80049000D01*
%TO.N,/QSPI_SS*%
X115950000Y-89450000D02*
X120762500Y-89450000D01*
X106724000Y-80224000D02*
X115950000Y-89450000D01*
X106724000Y-71500000D02*
X106724000Y-80224000D01*
%TO.N,GND*%
X125200000Y-109950000D02*
X125250000Y-110000000D01*
X123950000Y-109950000D02*
X125200000Y-109950000D01*
X121750000Y-108250000D02*
X120500000Y-108250000D01*
%TO.N,/XIN*%
X122676000Y-107026000D02*
X120650000Y-105000000D01*
X122676000Y-109024000D02*
X122676000Y-107026000D01*
X121750000Y-109950000D02*
X122676000Y-109024000D01*
%TO.N,Net-(C2-Pad2)*%
X123950000Y-107550000D02*
X125100000Y-106400000D01*
X123950000Y-108250000D02*
X123950000Y-107550000D01*
X125100000Y-106400000D02*
X125100000Y-105000000D01*
%TO.N,GND*%
X119501911Y-72095000D02*
X119513646Y-72083265D01*
D40*
X118511500Y-72095000D02*
X119501911Y-72095000D01*
%TO.N,+3V3*%
X131000000Y-78675000D02*
X133250000Y-80925000D01*
X133250000Y-80925000D02*
X133250000Y-87200000D01*
X133250000Y-87200000D02*
X130450000Y-90000000D01*
D39*
%TO.N,/GPIO0*%
X119000000Y-90500000D02*
X120112500Y-90500000D01*
X118750000Y-90750000D02*
X119000000Y-90500000D01*
%TO.N,/QSPI_SD1*%
X121162500Y-89450000D02*
X121162500Y-89050000D01*
X121162500Y-89050000D02*
X120862500Y-88750000D01*
%TO.N,/QSPI_SD0*%
X121962500Y-89450000D02*
X121962500Y-88998644D01*
%TO.N,/XIN*%
X120650000Y-100917002D02*
X120650000Y-105000000D01*
X122762500Y-96350000D02*
X122762500Y-98804502D01*
X122762500Y-98804502D02*
X120650000Y-100917002D01*
D41*
%TO.N,GND*%
X121210000Y-51750000D02*
X122710000Y-51750000D01*
X117250000Y-51750000D02*
X118750000Y-51750000D01*
D39*
X118750000Y-51750000D02*
X119020000Y-51480000D01*
D41*
%TO.N,VBUS*%
X127250000Y-62500000D02*
X130225000Y-62500000D01*
X121280000Y-56530000D02*
X127250000Y-62500000D01*
X121280000Y-54630000D02*
X121280000Y-56530000D01*
D40*
%TO.N,GND*%
X118680000Y-56070000D02*
X118500000Y-56250000D01*
X118680000Y-54630000D02*
X118680000Y-56070000D01*
D39*
%TO.N,Net-(U4-VREG_AVDD)*%
X130299000Y-85513500D02*
X126362500Y-89450000D01*
X130299000Y-82651000D02*
X130299000Y-85513500D01*
X131000000Y-81950000D02*
X130299000Y-82651000D01*
%TO.N,Net-(U2-~{CS})*%
X110461500Y-70095000D02*
X114461500Y-70095000D01*
%TO.N,/QSPI_SS*%
X106724000Y-71500000D02*
X106875000Y-71349000D01*
X106875000Y-71349000D02*
X106875000Y-69500000D01*
D40*
%TO.N,+3V3*%
X116961500Y-73777500D02*
X116961500Y-72095000D01*
D39*
%TO.N,Net-(U2-~{CS})*%
X108374000Y-74190000D02*
X108374000Y-71500000D01*
X108874000Y-74690000D02*
X108374000Y-74190000D01*
D40*
%TO.N,+3V3*%
X114461500Y-71745000D02*
X116611500Y-71745000D01*
D39*
%TO.N,Net-(U2-~{CS})*%
X110454000Y-70095000D02*
X109049000Y-71500000D01*
D40*
%TO.N,+3V3*%
X116049000Y-74690000D02*
X116961500Y-73777500D01*
D39*
%TO.N,Net-(U2-~{CS})*%
X109049000Y-71500000D02*
X108374000Y-71500000D01*
%TO.N,+3V3*%
X116611500Y-71745000D02*
X116961500Y-72095000D01*
D40*
%TO.N,Net-(U2-~{CS})*%
X110461500Y-70095000D02*
X110454000Y-70095000D01*
%TO.N,+3V3*%
X125162500Y-89450000D02*
X125162500Y-90248177D01*
D39*
%TO.N,GND*%
X125962500Y-88787500D02*
X126250000Y-88500000D01*
X125962500Y-89450000D02*
X125962500Y-88787500D01*
%TO.N,Net-(U4-VREG_LX)*%
X125562500Y-88187500D02*
X125562500Y-89450000D01*
X127401000Y-86349000D02*
X125562500Y-88187500D01*
X127401000Y-83099000D02*
X127401000Y-86349000D01*
X128500000Y-82000000D02*
X127401000Y-83099000D01*
D40*
%TO.N,+3V3*%
X122362500Y-97387500D02*
X119800000Y-99950000D01*
X122362500Y-96350000D02*
X122362500Y-97387500D01*
D39*
%TO.N,Net-(C2-Pad2)*%
X122800000Y-102700000D02*
X125100000Y-105000000D01*
X122800000Y-101500000D02*
X122800000Y-102700000D01*
%TO.N,GND*%
X119500000Y-80500000D02*
X119500000Y-79500000D01*
X132000000Y-97500000D02*
X133000000Y-97500000D01*
D40*
X132000000Y-90000000D02*
X133000000Y-90000000D01*
X132000000Y-92000000D02*
X133000000Y-92000000D01*
X132000000Y-94000000D02*
X133000000Y-94000000D01*
D39*
%TO.N,/RUN*%
X130912500Y-102900000D02*
X131500000Y-102900000D01*
X124762500Y-96350000D02*
X124762500Y-96750000D01*
X124762500Y-96750000D02*
X130912500Y-102900000D01*
X131500000Y-110100000D02*
X131500000Y-102900000D01*
%TO.N,Net-(R7-Pad1)*%
X134500000Y-102900000D02*
X134500000Y-110100000D01*
X134425000Y-102825000D02*
X134500000Y-102900000D01*
X134425000Y-100750000D02*
X134425000Y-102825000D01*
%TO.N,GND*%
X136075000Y-100750000D02*
X137250000Y-100750000D01*
D40*
X132875000Y-63625000D02*
X133300000Y-64050000D01*
X131775000Y-62525000D02*
X132875000Y-63625000D01*
D39*
X131775000Y-62500000D02*
X131775000Y-62525000D01*
D40*
X133300000Y-64050000D02*
X133300000Y-65850000D01*
X131775000Y-76000000D02*
X132750000Y-76000000D01*
D41*
%TO.N,+3V3*%
X130225000Y-72925000D02*
X131000000Y-72150000D01*
X130225000Y-76000000D02*
X130225000Y-72925000D01*
D40*
X130225000Y-77900000D02*
X131000000Y-78675000D01*
X130225000Y-76000000D02*
X130225000Y-77900000D01*
D42*
%TO.N,GND*%
X126650000Y-105000000D02*
X127500000Y-105000000D01*
D39*
X119100000Y-105000000D02*
X118250000Y-105000000D01*
%TO.N,+3V3*%
X126750000Y-97500000D02*
X130450000Y-97500000D01*
X126362500Y-97112500D02*
X126750000Y-97500000D01*
X126362500Y-96350000D02*
X126362500Y-97112500D01*
D40*
%TO.N,GND*%
X131000000Y-83500000D02*
X131000000Y-84500000D01*
X128275000Y-85750000D02*
X129250000Y-85750000D01*
X128250000Y-84000000D02*
X129250000Y-84000000D01*
%TO.N,+3V3*%
X125162500Y-87312500D02*
X126725000Y-85750000D01*
X125162500Y-89450000D02*
X125162500Y-87312500D01*
%TO.N,+1V1*%
X126700000Y-82200000D02*
X126500000Y-82000000D01*
D39*
X126700000Y-84000000D02*
X126700000Y-82200000D01*
D40*
X124762500Y-84737500D02*
X125000000Y-84500000D01*
X124762500Y-89450000D02*
X124762500Y-84737500D01*
X125500000Y-84000000D02*
X125000000Y-84500000D01*
X126700000Y-84000000D02*
X125500000Y-84000000D01*
%TO.N,+3V3*%
X127012500Y-90500000D02*
X126250000Y-90500000D01*
X129950000Y-90500000D02*
X130450000Y-90000000D01*
X127012500Y-90500000D02*
X129950000Y-90500000D01*
X122359859Y-95859859D02*
X122359859Y-95618382D01*
X122362500Y-95862500D02*
X122359859Y-95859859D01*
D39*
X126362500Y-96350000D02*
X126362500Y-95693750D01*
D40*
X127012500Y-92900000D02*
X126323573Y-92900000D01*
X120112500Y-90100000D02*
X120749000Y-90100000D01*
X120112500Y-94100000D02*
X120816610Y-94100000D01*
D39*
%TO.N,GND*%
X119800000Y-102450000D02*
X119750000Y-102500000D01*
D40*
X119800000Y-101500000D02*
X119800000Y-102450000D01*
X124750000Y-101500000D02*
X124750000Y-102500000D01*
D39*
X106000000Y-56250000D02*
X106000000Y-60000000D01*
D40*
%TO.N,+3V3*%
X117150000Y-90100000D02*
X120112500Y-90100000D01*
X117000000Y-90250000D02*
X117150000Y-90100000D01*
X117150000Y-94100000D02*
X120112500Y-94100000D01*
X117000000Y-94250000D02*
X117150000Y-94100000D01*
%TO.N,GND*%
X115450000Y-94250000D02*
X114250000Y-94250000D01*
X115450000Y-92250000D02*
X114250000Y-92250000D01*
X115450000Y-90250000D02*
X114250000Y-90250000D01*
%TO.N,+1V1*%
X124500000Y-98250000D02*
X124750000Y-98500000D01*
X124750000Y-98500000D02*
X124750000Y-99950000D01*
X123562500Y-97312500D02*
X124500000Y-98250000D01*
X123562500Y-96350000D02*
X123562500Y-97312500D01*
%TO.N,/XOUT*%
X123162500Y-99487500D02*
X122800000Y-99850000D01*
X123162500Y-96350000D02*
X123162500Y-99487500D01*
%TO.N,+1V1*%
X118500000Y-92100000D02*
X117400000Y-92100000D01*
X129250000Y-92500000D02*
X129950000Y-92500000D01*
X129950000Y-92500000D02*
X130450000Y-92000000D01*
X127012500Y-92500000D02*
X129250000Y-92500000D01*
D39*
%TO.N,GND*%
X106000000Y-52800000D02*
X106000000Y-56250000D01*
D41*
%TO.N,+3V3*%
X131000000Y-65850000D02*
X131000000Y-72150000D01*
%TO.N,VBUS*%
X130225000Y-64325000D02*
X128700000Y-65850000D01*
X130225000Y-62500000D02*
X130225000Y-64325000D01*
D40*
%TO.N,+1V1*%
X120112500Y-92100000D02*
X118500000Y-92100000D01*
D39*
%TO.N,Net-(U4-VREG_AVDD)*%
X131000000Y-81950000D02*
X131000000Y-80325000D01*
%TO.N,/~{USB_BOOT}*%
X109000000Y-52800000D02*
X109000000Y-60000000D01*
D40*
%TO.N,+3V3*%
X122362500Y-96350000D02*
X122362500Y-95862500D01*
D39*
%TO.N,/DP*%
X119980000Y-56730000D02*
X119980000Y-54630000D01*
%TO.N,/DM*%
X120630000Y-54630000D02*
X120630000Y-56955736D01*
%TO.N,/QSPI_SCLK*%
X116730000Y-77230000D02*
X116049000Y-77230000D01*
X117087500Y-77587500D02*
X116730000Y-77230000D01*
X117087500Y-86337500D02*
X117087500Y-77587500D01*
X118000000Y-87250000D02*
X117087500Y-86337500D01*
X120674266Y-87250000D02*
X118000000Y-87250000D01*
X122362500Y-88938234D02*
X120674266Y-87250000D01*
X122362500Y-89450000D02*
X122362500Y-88938234D01*
%TO.N,/QSPI_SD3*%
X122762500Y-88762500D02*
X122762500Y-89450000D01*
X120750000Y-86750000D02*
X122762500Y-88762500D01*
X118250000Y-86750000D02*
X120750000Y-86750000D01*
X117750000Y-86250000D02*
X118250000Y-86750000D01*
X117750000Y-77000000D02*
X117750000Y-86250000D01*
X116049000Y-75960000D02*
X116710000Y-75960000D01*
X116710000Y-75960000D02*
X117750000Y-77000000D01*
%TD*%
%TA.AperFunction,Conductor*%
%TO.N,+1V1*%
G36*
X125709191Y-90768907D02*
G01*
X125745155Y-90818407D01*
X125750000Y-90849000D01*
X125750000Y-95151000D01*
X125731093Y-95209191D01*
X125681593Y-95245155D01*
X125651000Y-95250000D01*
X121349000Y-95250000D01*
X121290809Y-95231093D01*
X121254845Y-95181593D01*
X121250000Y-95151000D01*
X121250000Y-91185172D01*
X121712000Y-91185172D01*
X121712000Y-94614827D01*
X121720732Y-94658720D01*
X121720733Y-94658722D01*
X121753996Y-94708504D01*
X121803778Y-94741767D01*
X121814827Y-94743964D01*
X121847672Y-94750499D01*
X121847678Y-94750499D01*
X121847680Y-94750500D01*
X121847681Y-94750500D01*
X125277319Y-94750500D01*
X125277320Y-94750500D01*
X125277321Y-94750499D01*
X125277327Y-94750499D01*
X125299123Y-94746162D01*
X125321222Y-94741767D01*
X125371004Y-94708504D01*
X125404267Y-94658722D01*
X125413000Y-94614820D01*
X125413000Y-91185180D01*
X125412999Y-91185178D01*
X125412999Y-91185172D01*
X125404267Y-91141279D01*
X125404265Y-91141275D01*
X125371005Y-91091498D01*
X125371004Y-91091496D01*
X125370340Y-91091052D01*
X125321224Y-91058234D01*
X125321220Y-91058232D01*
X125277327Y-91049500D01*
X125277320Y-91049500D01*
X121847680Y-91049500D01*
X121847672Y-91049500D01*
X121803779Y-91058232D01*
X121803775Y-91058234D01*
X121753998Y-91091494D01*
X121753994Y-91091498D01*
X121720734Y-91141275D01*
X121720732Y-91141279D01*
X121712000Y-91185172D01*
X121250000Y-91185172D01*
X121250000Y-90849000D01*
X121268907Y-90790809D01*
X121318407Y-90754845D01*
X121349000Y-90750000D01*
X125651000Y-90750000D01*
X125709191Y-90768907D01*
G37*
%TD.AperFunction*%
%TD*%
%TA.AperFunction,Conductor*%
%TO.N,+3V3*%
G36*
X121091283Y-90000356D02*
G01*
X121092746Y-90000500D01*
X121092752Y-90000500D01*
X121232254Y-90000500D01*
X121233717Y-90000356D01*
X121240964Y-90000000D01*
X121484036Y-90000000D01*
X121491283Y-90000356D01*
X121492746Y-90000500D01*
X121492752Y-90000500D01*
X121632254Y-90000500D01*
X121633717Y-90000356D01*
X121640964Y-90000000D01*
X121884036Y-90000000D01*
X121891283Y-90000356D01*
X121892746Y-90000500D01*
X121892752Y-90000500D01*
X122032254Y-90000500D01*
X122033717Y-90000356D01*
X122040964Y-90000000D01*
X122284036Y-90000000D01*
X122291283Y-90000356D01*
X122292746Y-90000500D01*
X122292752Y-90000500D01*
X122432254Y-90000500D01*
X122433717Y-90000356D01*
X122440964Y-90000000D01*
X122684036Y-90000000D01*
X122691283Y-90000356D01*
X122692746Y-90000500D01*
X122692752Y-90000500D01*
X122832254Y-90000500D01*
X122833717Y-90000356D01*
X122840964Y-90000000D01*
X123484036Y-90000000D01*
X123491283Y-90000356D01*
X123492746Y-90000500D01*
X123492752Y-90000500D01*
X123632254Y-90000500D01*
X123633717Y-90000356D01*
X123640964Y-90000000D01*
X123884036Y-90000000D01*
X123891283Y-90000356D01*
X123892746Y-90000500D01*
X123892752Y-90000500D01*
X124032254Y-90000500D01*
X124033717Y-90000356D01*
X124040964Y-90000000D01*
X124284036Y-90000000D01*
X124291283Y-90000356D01*
X124292746Y-90000500D01*
X124292752Y-90000500D01*
X124432254Y-90000500D01*
X124433717Y-90000356D01*
X124440964Y-90000000D01*
X124684036Y-90000000D01*
X124691283Y-90000356D01*
X124692746Y-90000500D01*
X124692752Y-90000500D01*
X124832254Y-90000500D01*
X124833717Y-90000356D01*
X124840964Y-90000000D01*
X125484036Y-90000000D01*
X125491283Y-90000356D01*
X125492746Y-90000500D01*
X125492752Y-90000500D01*
X125632254Y-90000500D01*
X125633717Y-90000356D01*
X125640964Y-90000000D01*
X125884036Y-90000000D01*
X125891283Y-90000356D01*
X125892746Y-90000500D01*
X125892752Y-90000500D01*
X126032254Y-90000500D01*
X126033717Y-90000356D01*
X126040964Y-90000000D01*
X126284036Y-90000000D01*
X126284557Y-90000002D01*
X126290457Y-90000043D01*
X126292752Y-90000500D01*
X126355330Y-90000500D01*
X126355614Y-90000502D01*
X126381447Y-90011416D01*
X126407419Y-90022174D01*
X126407526Y-90022434D01*
X126407786Y-90022544D01*
X126418338Y-90048535D01*
X126429093Y-90074500D01*
X126429093Y-95676000D01*
X126407419Y-95728326D01*
X126355093Y-95750000D01*
X120761484Y-95750000D01*
X120709158Y-95728326D01*
X120687484Y-95676000D01*
X120687484Y-92040654D01*
X120908758Y-92040654D01*
X120908758Y-92159277D01*
X120939457Y-92273848D01*
X120939459Y-92273853D01*
X120998766Y-92376575D01*
X120998767Y-92376576D01*
X120998769Y-92376579D01*
X121072826Y-92450636D01*
X121094500Y-92502961D01*
X121094500Y-95151000D01*
X121096413Y-95175314D01*
X121096414Y-95175324D01*
X121101258Y-95205914D01*
X121101260Y-95205919D01*
X121129042Y-95272993D01*
X121129043Y-95272995D01*
X121164993Y-95322476D01*
X121165007Y-95322494D01*
X121175251Y-95335144D01*
X121242758Y-95378983D01*
X121242760Y-95378983D01*
X121242761Y-95378984D01*
X121242763Y-95378985D01*
X121294042Y-95395645D01*
X121300949Y-95397890D01*
X121342699Y-95404502D01*
X121348999Y-95405500D01*
X121349000Y-95405500D01*
X123089684Y-95405500D01*
X123142010Y-95427174D01*
X123218374Y-95503538D01*
X123321101Y-95562848D01*
X123321102Y-95562848D01*
X123321104Y-95562849D01*
X123354394Y-95571769D01*
X123435675Y-95593548D01*
X123435676Y-95593549D01*
X123435678Y-95593549D01*
X123554298Y-95593549D01*
X123554298Y-95593548D01*
X123668873Y-95562848D01*
X123771600Y-95503538D01*
X123847964Y-95427174D01*
X123900290Y-95405500D01*
X125651001Y-95405500D01*
X125653432Y-95405308D01*
X125675323Y-95403586D01*
X125705916Y-95398741D01*
X125772994Y-95370957D01*
X125822494Y-95334993D01*
X125835144Y-95324749D01*
X125878983Y-95257242D01*
X125897890Y-95199051D01*
X125905500Y-95151000D01*
X125905500Y-92938640D01*
X125927174Y-92886314D01*
X125942501Y-92874554D01*
X125948077Y-92871334D01*
X125968792Y-92859375D01*
X126052668Y-92775499D01*
X126111978Y-92672772D01*
X126142678Y-92558197D01*
X126142679Y-92558197D01*
X126142679Y-92439575D01*
X126142678Y-92439574D01*
X126111979Y-92325003D01*
X126111977Y-92324998D01*
X126052670Y-92222276D01*
X126052669Y-92222275D01*
X126052668Y-92222273D01*
X125968792Y-92138397D01*
X125968789Y-92138395D01*
X125968787Y-92138393D01*
X125942499Y-92123215D01*
X125908021Y-92078281D01*
X125905500Y-92059130D01*
X125905500Y-90848999D01*
X125905287Y-90846297D01*
X125903586Y-90824677D01*
X125898741Y-90794084D01*
X125870957Y-90727006D01*
X125869863Y-90725500D01*
X125835006Y-90677523D01*
X125834986Y-90677497D01*
X125832298Y-90674179D01*
X125824749Y-90664856D01*
X125757242Y-90621017D01*
X125757240Y-90621016D01*
X125757238Y-90621015D01*
X125757236Y-90621014D01*
X125699056Y-90602111D01*
X125699052Y-90602110D01*
X125699051Y-90602110D01*
X125671766Y-90597788D01*
X125651001Y-90594500D01*
X125651000Y-90594500D01*
X124973138Y-90594500D01*
X124920812Y-90572826D01*
X124909052Y-90557500D01*
X124860491Y-90473390D01*
X124860490Y-90473389D01*
X124860489Y-90473387D01*
X124776613Y-90389511D01*
X124776610Y-90389509D01*
X124776609Y-90389508D01*
X124673887Y-90330201D01*
X124673882Y-90330199D01*
X124559311Y-90299500D01*
X124559309Y-90299500D01*
X124440691Y-90299500D01*
X124440689Y-90299500D01*
X124326117Y-90330199D01*
X124326112Y-90330201D01*
X124223390Y-90389508D01*
X124139508Y-90473390D01*
X124090948Y-90557500D01*
X124046015Y-90591978D01*
X124026862Y-90594500D01*
X121348999Y-90594500D01*
X121324685Y-90596413D01*
X121324675Y-90596414D01*
X121294085Y-90601258D01*
X121294080Y-90601260D01*
X121227006Y-90629042D01*
X121227004Y-90629043D01*
X121177523Y-90664993D01*
X121177497Y-90665013D01*
X121164857Y-90675250D01*
X121164856Y-90675251D01*
X121163392Y-90677506D01*
X121121015Y-90742761D01*
X121121014Y-90742763D01*
X121102111Y-90800943D01*
X121094500Y-90848999D01*
X121094500Y-91696970D01*
X121072826Y-91749296D01*
X120998766Y-91823356D01*
X120939459Y-91926078D01*
X120939457Y-91926083D01*
X120908758Y-92040654D01*
X120687484Y-92040654D01*
X120687484Y-90074500D01*
X120709158Y-90022174D01*
X120761484Y-90000500D01*
X120832254Y-90000500D01*
X120833717Y-90000356D01*
X120840964Y-90000000D01*
X121084036Y-90000000D01*
X121091283Y-90000356D01*
G37*
%TD.AperFunction*%
%TD*%
M02*
